G04 DipTrace 2.4.0.2*
%INBOTTOM_SILK.GBO*%
%MOIN*%
%ADD10C,0.0098*%
%ADD15C,0.0197*%
%ADD16C,0.0394*%
%ADD17C,0.0*%
%ADD37C,0.0077*%
%ADD38C,0.0309*%
%ADD39C,0.0216*%
%ADD40C,0.0154*%
%FSLAX44Y44*%
G04*
G70*
G90*
G75*
G01*
%LNBotSilk*%
%LPD*%
X22413Y4854D2*
D10*
X19263D1*
Y5783D1*
X22413D1*
Y4854D1*
X48428Y55121D2*
X43704D1*
Y56696D1*
X48428D1*
Y55121D1*
X30060Y62466D2*
D17*
X57877Y74609D2*
D15*
X76775D1*
Y61617D1*
X57877D1*
Y74609D1*
X50200Y71657D2*
X50987D1*
Y69294D1*
X50200D1*
Y71657D1*
Y66932D2*
X50987D1*
Y64570D1*
X50200D1*
Y66932D1*
X50594Y71657D2*
Y72838D1*
X52956D1*
X50594Y69294D2*
Y66932D1*
Y68113D2*
X52956D1*
X50594Y64570D2*
Y63389D1*
X52956D1*
Y72838D2*
G02X52956Y72838I197J0D01*
G01*
Y68113D2*
G02X52956Y68113I197J0D01*
G01*
D16*
X50594D3*
X52956Y63389D2*
D15*
G02X52956Y63389I197J0D01*
G01*
X40554Y66932D2*
Y65751D1*
X42917D1*
X45279Y74609D2*
X55515D1*
Y61617D1*
X45279D1*
Y74609D1*
X42917Y70476D2*
G02X42917Y70476I197J0D01*
G01*
D16*
X40554D3*
Y69294D2*
D15*
G02X40554Y68113I0J-591D01*
G01*
G03X40554Y66932I0J-591D01*
G01*
D16*
X50594Y63389D3*
Y72838D3*
X42917Y65751D2*
D15*
G02X42917Y65751I197J0D01*
G01*
D16*
X40554D3*
X23625Y74609D2*
D15*
X31893D1*
Y72444D1*
X23625D1*
Y74609D1*
X15357D2*
X23625D1*
Y72444D1*
X15357D1*
Y74609D1*
X31893Y72444D2*
X34255D1*
Y70279D1*
X31893D1*
Y72444D1*
Y70279D2*
X34255D1*
Y68113D1*
X31893D1*
Y70279D1*
Y68113D2*
X34255D1*
Y65948D1*
X31893D1*
Y68113D1*
Y65948D2*
X34255D1*
Y63783D1*
X31893D1*
Y65948D1*
Y63783D2*
X34255D1*
Y61617D1*
X31893D1*
Y63783D1*
X23625Y72444D2*
X31893D1*
Y70279D1*
X23625D1*
Y72444D1*
X15357D2*
X23625D1*
Y70279D1*
X15357D1*
Y72444D1*
X23625Y70279D2*
X31893D1*
Y68113D1*
X23625D1*
Y70279D1*
X15357D2*
X23625D1*
Y68113D1*
X15357D1*
Y70279D1*
X23625Y68113D2*
X31893D1*
Y65948D1*
X23625D1*
Y68113D1*
X15357D2*
X23625D1*
Y65948D1*
X15357D1*
Y68113D1*
X23625Y65948D2*
X31893D1*
Y63783D1*
X23625D1*
Y65948D1*
X15357D2*
X23625D1*
Y63783D1*
X15357D1*
Y65948D1*
X23625Y63783D2*
X31893D1*
Y61617D1*
X23625D1*
Y63783D1*
X15357D2*
X23625D1*
Y61617D1*
X15357D1*
Y63783D1*
X40554Y69294D2*
Y70476D1*
X42917D1*
X36617Y74609D2*
X45279D1*
Y61617D1*
X36617D1*
Y74609D1*
X21201Y6515D2*
D37*
X21512D1*
Y6013D1*
Y6276D2*
X21321D1*
X21046Y6515D2*
Y6013D1*
X20892Y6204D2*
X20605D1*
Y6252D1*
X20629Y6300D1*
X20653Y6324D1*
X20701Y6347D1*
X20772D1*
X20820Y6324D1*
X20868Y6276D1*
X20892Y6204D1*
Y6156D1*
X20868Y6084D1*
X20820Y6037D1*
X20772Y6013D1*
X20701D1*
X20653Y6037D1*
X20605Y6084D1*
X20164Y6515D2*
Y6013D1*
Y6276D2*
X20211Y6324D1*
X20259Y6347D1*
X20331D1*
X20379Y6324D1*
X20427Y6276D1*
X20451Y6204D1*
Y6156D1*
X20427Y6084D1*
X20379Y6037D1*
X20331Y6013D1*
X20259D1*
X20211Y6037D1*
X20164Y6084D1*
X46865Y58019D2*
X47177D1*
Y57516D1*
Y57780D2*
X46985D1*
X46639Y58019D2*
Y57612D1*
X46615Y57541D1*
X46567Y57516D1*
X46520D1*
X46711Y57851D2*
X46544D1*
X46365Y57708D2*
X46079D1*
Y57756D1*
X46102Y57804D1*
X46126Y57828D1*
X46174Y57851D1*
X46246D1*
X46294Y57828D1*
X46342Y57780D1*
X46365Y57708D1*
Y57660D1*
X46342Y57588D1*
X46294Y57541D1*
X46246Y57516D1*
X46174D1*
X46126Y57541D1*
X46079Y57588D1*
X45924Y57851D2*
Y57516D1*
Y57756D2*
X45852Y57828D1*
X45804Y57851D1*
X45733D1*
X45685Y57828D1*
X45661Y57756D1*
Y57516D1*
Y57756D2*
X45589Y57828D1*
X45541Y57851D1*
X45470D1*
X45422Y57828D1*
X45397Y57756D1*
Y57516D1*
X45243Y57851D2*
Y57349D1*
Y57780D2*
X45195Y57827D1*
X45147Y57851D1*
X45076D1*
X45028Y57827D1*
X44980Y57780D1*
X44956Y57708D1*
Y57660D1*
X44980Y57588D1*
X45028Y57540D1*
X45076Y57516D1*
X45147D1*
X45195Y57540D1*
X45243Y57588D1*
X25099Y6106D2*
X24884D1*
X24812Y6131D1*
X24787Y6154D1*
X24764Y6202D1*
Y6250D1*
X24787Y6298D1*
X24812Y6322D1*
X24884Y6346D1*
X25099D1*
Y5843D1*
X24931Y6106D2*
X24764Y5843D1*
X24609Y6346D2*
Y5843D1*
X24455Y6034D2*
X24168D1*
Y6083D1*
X24192Y6131D1*
X24215Y6154D1*
X24264Y6178D1*
X24335D1*
X24383Y6154D1*
X24431Y6106D1*
X24455Y6034D1*
Y5987D1*
X24431Y5915D1*
X24383Y5868D1*
X24335Y5843D1*
X24264D1*
X24215Y5868D1*
X24168Y5915D1*
X23727Y6346D2*
Y5843D1*
Y6106D2*
X23774Y6154D1*
X23822Y6178D1*
X23894D1*
X23942Y6154D1*
X23990Y6106D1*
X24014Y6034D1*
Y5987D1*
X23990Y5915D1*
X23942Y5868D1*
X23894Y5843D1*
X23822D1*
X23774Y5868D1*
X23727Y5915D1*
X68444Y82387D2*
D38*
Y82482D1*
X68349Y82674D1*
X68254Y82769D1*
X68062Y82864D1*
X67679D1*
X67489Y82769D1*
X67394Y82674D1*
X67297Y82482D1*
Y82292D1*
X67394Y82099D1*
X67584Y81814D1*
X68541Y80857D1*
X67202D1*
X66392Y82864D2*
X65342D1*
X65914Y82099D1*
X65627D1*
X65437Y82004D1*
X65342Y81909D1*
X65244Y81622D1*
Y81432D1*
X65342Y81144D1*
X65532Y80952D1*
X65819Y80857D1*
X66106D1*
X66392Y80952D1*
X66487Y81049D1*
X66584Y81239D1*
X64052Y82864D2*
X64339Y82769D1*
X64532Y82482D1*
X64627Y82004D1*
Y81717D1*
X64532Y81239D1*
X64339Y80952D1*
X64052Y80857D1*
X63862D1*
X63574Y80952D1*
X63384Y81239D1*
X63287Y81717D1*
Y82004D1*
X63384Y82482D1*
X63574Y82769D1*
X63862Y82864D1*
X64052D1*
X63384Y82482D2*
X64532Y81239D1*
X60725Y82867D2*
X59960Y80857D1*
X59195Y82867D1*
X56634Y80857D2*
X55294Y82864D1*
X52733Y82482D2*
X52540Y82579D1*
X52253Y82864D1*
Y80857D1*
X51635Y82482D2*
X51443Y82579D1*
X51155Y82864D1*
Y80857D1*
X49963Y82864D2*
X50251Y82769D1*
X50443Y82482D1*
X50538Y82004D1*
Y81717D1*
X50443Y81239D1*
X50251Y80952D1*
X49963Y80857D1*
X49773D1*
X49486Y80952D1*
X49295Y81239D1*
X49198Y81717D1*
Y82004D1*
X49295Y82482D1*
X49486Y82769D1*
X49773Y82864D1*
X49963D1*
X49295Y82482D2*
X50443Y81239D1*
X46637Y82867D2*
X45872Y80857D1*
X45107Y82867D1*
X42545D2*
Y80857D1*
X41205Y82867D2*
Y80857D1*
X42545Y81909D2*
X41205D1*
X39345Y82867D2*
X40588D1*
Y80857D1*
X39345D1*
X40588Y81909D2*
X39823D1*
X37196Y80857D2*
X37963Y82867D1*
X38728Y80857D1*
X38440Y81527D2*
X37483D1*
X35908Y82867D2*
Y80857D1*
X36578Y82867D2*
X35238D1*
X33378D2*
X34621D1*
Y80857D1*
X33378D1*
X34621Y81909D2*
X33856D1*
X32761Y82867D2*
Y80857D1*
X32091D1*
X31804Y80954D1*
X31611Y81144D1*
X31516Y81337D1*
X31421Y81622D1*
Y82102D1*
X31516Y82389D1*
X31611Y82579D1*
X31804Y82771D1*
X32091Y82867D1*
X32761D1*
X28859D2*
Y80857D1*
X27997D1*
X27710Y80954D1*
X27615Y81049D1*
X27520Y81239D1*
Y81527D1*
X27615Y81719D1*
X27710Y81814D1*
X27997Y81909D1*
X27710Y82007D1*
X27615Y82102D1*
X27520Y82292D1*
Y82484D1*
X27615Y82674D1*
X27710Y82771D1*
X27997Y82867D1*
X28859D1*
Y81909D2*
X27997D1*
X25660Y82867D2*
X26902D1*
Y80857D1*
X25660D1*
X26902Y81909D2*
X26137D1*
X25042Y82867D2*
Y80857D1*
X24372D1*
X24085Y80954D1*
X23893Y81144D1*
X23797Y81337D1*
X23702Y81622D1*
Y82102D1*
X23797Y82389D1*
X23893Y82579D1*
X24085Y82771D1*
X24372Y82867D1*
X25042D1*
X18754Y88039D2*
D39*
X18619Y88107D1*
X18418Y88306D1*
Y86901D1*
X22831Y87972D2*
Y88039D1*
X22765Y88173D1*
X22698Y88240D1*
X22564Y88306D1*
X22296D1*
X22163Y88240D1*
X22096Y88173D1*
X22028Y88039D1*
Y87905D1*
X22096Y87771D1*
X22229Y87571D1*
X22899Y86901D1*
X21962D1*
X26702Y88306D2*
X25967D1*
X26368Y87771D1*
X26166D1*
X26033Y87704D1*
X25967Y87638D1*
X25899Y87437D1*
Y87303D1*
X25967Y87102D1*
X26100Y86968D1*
X26301Y86901D1*
X26502D1*
X26702Y86968D1*
X26768Y87036D1*
X26836Y87169D1*
X30170Y86901D2*
Y88306D1*
X30840Y87370D1*
X29836D1*
X33907Y88306D2*
X34576D1*
X34642Y87704D1*
X34576Y87771D1*
X34375Y87839D1*
X34175D1*
X33974Y87771D1*
X33839Y87638D1*
X33773Y87437D1*
Y87303D1*
X33839Y87102D1*
X33974Y86968D1*
X34175Y86901D1*
X34375D1*
X34576Y86968D1*
X34642Y87036D1*
X34710Y87169D1*
X33194Y71716D2*
D40*
X33097Y71764D1*
X32954Y71907D1*
Y70903D1*
X48592Y70580D2*
D37*
Y70173D1*
X48568Y70102D1*
X48520Y70078D1*
X48473D1*
X48664Y70413D2*
X48496D1*
X48199D2*
X48246Y70389D1*
X48294Y70341D1*
X48318Y70269D1*
Y70221D1*
X48294Y70149D1*
X48246Y70102D1*
X48199Y70078D1*
X48127D1*
X48079Y70102D1*
X48031Y70149D1*
X48007Y70221D1*
Y70269D1*
X48031Y70341D1*
X48079Y70389D1*
X48127Y70413D1*
X48199D1*
X47853D2*
Y69910D1*
Y70341D2*
X47805Y70388D1*
X47757Y70413D1*
X47685D1*
X47637Y70388D1*
X47590Y70341D1*
X47565Y70269D1*
Y70221D1*
X47590Y70149D1*
X47637Y70101D1*
X47685Y70078D1*
X47757D1*
X47805Y70101D1*
X47853Y70149D1*
X54454Y73291D2*
D40*
X54357Y73339D1*
X54214Y73482D1*
Y72478D1*
X54602Y68519D2*
Y68566D1*
X54554Y68662D1*
X54507Y68710D1*
X54410Y68757D1*
X54219D1*
X54124Y68710D1*
X54077Y68662D1*
X54028Y68566D1*
Y68471D1*
X54077Y68375D1*
X54172Y68232D1*
X54650Y67754D1*
X53980D1*
X54077Y64033D2*
X54554D1*
X54602Y63603D1*
X54554Y63650D1*
X54410Y63699D1*
X54268D1*
X54124Y63650D1*
X54028Y63555D1*
X53980Y63412D1*
Y63317D1*
X54028Y63173D1*
X54124Y63077D1*
X54268Y63029D1*
X54410D1*
X54554Y63077D1*
X54602Y63125D1*
X54650Y63220D1*
X44515Y71120D2*
X43990D1*
X44276Y70737D1*
X44132D1*
X44037Y70690D1*
X43990Y70642D1*
X43941Y70498D1*
Y70403D1*
X43990Y70260D1*
X44085Y70163D1*
X44229Y70116D1*
X44372D1*
X44515Y70163D1*
X44562Y70212D1*
X44611Y70307D1*
X44132Y65391D2*
Y66395D1*
X44611Y65726D1*
X43894D1*
X33342Y69503D2*
Y69550D1*
X33294Y69647D1*
X33247Y69694D1*
X33151Y69742D1*
X32959D1*
X32864Y69694D1*
X32817Y69647D1*
X32768Y69550D1*
Y69455D1*
X32817Y69359D1*
X32912Y69217D1*
X33391Y68738D1*
X32721D1*
X33294Y67576D2*
X32769D1*
X33056Y67194D1*
X32912D1*
X32817Y67146D1*
X32769Y67099D1*
X32721Y66955D1*
Y66860D1*
X32769Y66716D1*
X32864Y66620D1*
X33008Y66573D1*
X33152D1*
X33294Y66620D1*
X33342Y66669D1*
X33391Y66764D1*
X32912Y64407D2*
Y65411D1*
X33391Y64742D1*
X32673D1*
X32817Y63246D2*
X33294D1*
X33342Y62816D1*
X33294Y62863D1*
X33151Y62912D1*
X33008D1*
X32864Y62863D1*
X32768Y62768D1*
X32721Y62624D1*
Y62529D1*
X32768Y62386D1*
X32864Y62289D1*
X33008Y62242D1*
X33151D1*
X33294Y62289D1*
X33342Y62338D1*
X33391Y62433D1*
X30162Y71908D2*
Y70903D1*
X30831Y71908D1*
Y70903D1*
X29232Y71908D2*
X29853D1*
Y70903D1*
X29232D1*
X29853Y71429D2*
X29470D1*
X28923Y71908D2*
Y71191D1*
X28875Y71047D1*
X28779Y70952D1*
X28635Y70903D1*
X28540D1*
X28397Y70952D1*
X28300Y71047D1*
X28253Y71191D1*
Y71908D1*
X27609D2*
Y70903D1*
X27944Y71908D2*
X27274D1*
X26965Y71429D2*
X26535D1*
X26392Y71478D1*
X26343Y71526D1*
X26296Y71621D1*
Y71717D1*
X26343Y71812D1*
X26392Y71861D1*
X26535Y71908D1*
X26965D1*
Y70903D1*
X26631Y71429D2*
X26296Y70903D1*
X25221D2*
X25604Y71908D1*
X25987Y70903D1*
X25843Y71238D2*
X25365D1*
X24912Y71908D2*
Y70903D1*
X24338D1*
X30044Y67051D2*
X29613D1*
X29470Y67099D1*
X29422Y67147D1*
X29374Y67242D1*
Y67386D1*
X29422Y67481D1*
X29470Y67530D1*
X29613Y67577D1*
X30044D1*
Y66573D1*
X29065Y67577D2*
Y66573D1*
X28396Y67577D2*
Y66573D1*
X29065Y67099D2*
X28396D1*
X27321Y66573D2*
X27704Y67577D1*
X28087Y66573D1*
X27943Y66907D2*
X27464D1*
X26342Y67434D2*
X26437Y67530D1*
X26581Y67577D1*
X26772D1*
X26916Y67530D1*
X27012Y67434D1*
Y67339D1*
X26963Y67242D1*
X26916Y67195D1*
X26821Y67147D1*
X26533Y67051D1*
X26437Y67004D1*
X26390Y66955D1*
X26342Y66860D1*
Y66716D1*
X26437Y66621D1*
X26581Y66573D1*
X26772D1*
X26916Y66621D1*
X27012Y66716D1*
X25412Y67577D2*
X26033D1*
Y66573D1*
X25412D1*
X26033Y67099D2*
X25651D1*
X29799Y73834D2*
Y73881D1*
X29751Y73977D1*
X29704Y74025D1*
X29607Y74072D1*
X29416D1*
X29321Y74025D1*
X29274Y73977D1*
X29225Y73881D1*
Y73786D1*
X29274Y73690D1*
X29369Y73547D1*
X29847Y73069D1*
X29177D1*
X28772Y74072D2*
X28247D1*
X28534Y73690D1*
X28390D1*
X28295Y73642D1*
X28247Y73595D1*
X28199Y73451D1*
Y73356D1*
X28247Y73212D1*
X28342Y73116D1*
X28486Y73069D1*
X28630D1*
X28772Y73116D1*
X28820Y73165D1*
X28869Y73260D1*
X27603Y74072D2*
X27746Y74025D1*
X27842Y73881D1*
X27890Y73642D1*
Y73499D1*
X27842Y73260D1*
X27746Y73116D1*
X27603Y73069D1*
X27507D1*
X27364Y73116D1*
X27269Y73260D1*
X27220Y73499D1*
Y73642D1*
X27269Y73881D1*
X27364Y74025D1*
X27507Y74072D1*
X27603D1*
X27269Y73881D2*
X27842Y73260D1*
X25939Y74073D2*
X25557Y73069D1*
X25174Y74073D1*
X21383Y73881D2*
X21286Y73930D1*
X21143Y74072D1*
Y73069D1*
X20834Y73881D2*
X20738Y73930D1*
X20594Y74072D1*
Y73069D1*
X19998Y74072D2*
X20142Y74025D1*
X20238Y73881D1*
X20285Y73642D1*
Y73499D1*
X20238Y73260D1*
X20142Y73116D1*
X19998Y73069D1*
X19903D1*
X19759Y73116D1*
X19664Y73260D1*
X19615Y73499D1*
Y73642D1*
X19664Y73881D1*
X19759Y74025D1*
X19903Y74072D1*
X19998D1*
X19664Y73881D2*
X20238Y73260D1*
X18335Y74073D2*
X17952Y73069D1*
X17570Y74073D1*
X22091Y63247D2*
Y62242D1*
X22761Y63247D1*
Y62242D1*
X21161Y63247D2*
X21782D1*
Y62242D1*
X21161D1*
X21782Y62768D2*
X21399D1*
X20852Y63247D2*
Y62529D1*
X20804Y62386D1*
X20708Y62290D1*
X20565Y62242D1*
X20469D1*
X20326Y62290D1*
X20230Y62386D1*
X20182Y62529D1*
Y63247D1*
X19538D2*
Y62242D1*
X19873Y63247D2*
X19203D1*
X18895Y62768D2*
X18465D1*
X18321Y62817D1*
X18272Y62864D1*
X18225Y62959D1*
Y63055D1*
X18272Y63150D1*
X18321Y63199D1*
X18465Y63247D1*
X18895D1*
Y62242D1*
X18560Y62768D2*
X18225Y62242D1*
X17150D2*
X17534Y63247D1*
X17916Y62242D1*
X17772Y62577D2*
X17294D1*
X16841Y63247D2*
Y62242D1*
X16267D1*
X27502Y65411D2*
X27979D1*
X28027Y64981D1*
X27979Y65028D1*
X27836Y65077D1*
X27693D1*
X27549Y65028D1*
X27453Y64933D1*
X27406Y64790D1*
Y64695D1*
X27453Y64551D1*
X27549Y64455D1*
X27693Y64407D1*
X27836D1*
X27979Y64455D1*
X28027Y64503D1*
X28076Y64598D1*
X27799Y69743D2*
Y68738D1*
X28469Y69743D1*
Y68738D1*
X26773Y69504D2*
X26821Y69599D1*
X26917Y69695D1*
X27012Y69743D1*
X27203D1*
X27299Y69695D1*
X27394Y69599D1*
X27443Y69504D1*
X27491Y69360D1*
Y69120D1*
X27443Y68978D1*
X27394Y68882D1*
X27299Y68787D1*
X27203Y68738D1*
X27012D1*
X26917Y68787D1*
X26821Y68882D1*
X26773Y68978D1*
X22091Y71908D2*
Y70903D1*
X22761Y71908D1*
Y70903D1*
X21161Y71908D2*
X21782D1*
Y70903D1*
X21161D1*
X21782Y71429D2*
X21399D1*
X20852Y71908D2*
Y71191D1*
X20804Y71047D1*
X20708Y70952D1*
X20565Y70903D1*
X20469D1*
X20326Y70952D1*
X20230Y71047D1*
X20182Y71191D1*
Y71908D1*
X19538D2*
Y70903D1*
X19873Y71908D2*
X19203D1*
X18895Y71429D2*
X18465D1*
X18321Y71478D1*
X18272Y71526D1*
X18225Y71621D1*
Y71717D1*
X18272Y71812D1*
X18321Y71861D1*
X18465Y71908D1*
X18895D1*
Y70903D1*
X18560Y71429D2*
X18225Y70903D1*
X17150D2*
X17534Y71908D1*
X17916Y70903D1*
X17772Y71238D2*
X17294D1*
X16841Y71908D2*
Y70903D1*
X16267D1*
X19712Y69742D2*
X19187D1*
X19473Y69359D1*
X19329D1*
X19234Y69312D1*
X19187Y69264D1*
X19138Y69120D1*
Y69025D1*
X19187Y68882D1*
X19282Y68785D1*
X19425Y68738D1*
X19569D1*
X19712Y68785D1*
X19759Y68834D1*
X19808Y68929D1*
X21973Y64886D2*
X21542D1*
X21399Y64933D1*
X21351Y64982D1*
X21303Y65077D1*
Y65221D1*
X21351Y65316D1*
X21399Y65364D1*
X21542Y65412D1*
X21973D1*
Y64407D1*
X20995Y65412D2*
Y64407D1*
X20325Y65412D2*
Y64407D1*
X20995Y64933D2*
X20325D1*
X19250Y64407D2*
X19633Y65412D1*
X20016Y64407D1*
X19872Y64742D2*
X19394D1*
X18271Y65268D2*
X18366Y65364D1*
X18510Y65412D1*
X18701D1*
X18845Y65364D1*
X18941Y65268D1*
Y65173D1*
X18892Y65077D1*
X18845Y65030D1*
X18750Y64982D1*
X18462Y64886D1*
X18366Y64838D1*
X18319Y64790D1*
X18271Y64695D1*
Y64551D1*
X18366Y64456D1*
X18510Y64407D1*
X18701D1*
X18845Y64456D1*
X18941Y64551D1*
X17341Y65412D2*
X17962D1*
Y64407D1*
X17341D1*
X17962Y64933D2*
X17580D1*
X34452Y76316D2*
X34212Y75311D1*
X33973Y76316D1*
X33735Y75311D1*
X33495Y76316D1*
X33186D2*
Y75311D1*
X32877Y75837D2*
X32447D1*
X32303Y75886D1*
X32255Y75934D1*
X32207Y76029D1*
Y76125D1*
X32255Y76220D1*
X32303Y76268D1*
X32447Y76316D1*
X32877D1*
Y75311D1*
X32542Y75837D2*
X32207Y75311D1*
X31898Y76316D2*
Y75311D1*
X30920Y76316D2*
Y75311D1*
X31590Y76316D1*
Y75311D1*
X29894Y76077D2*
X29941Y76172D1*
X30037Y76268D1*
X30132Y76316D1*
X30324D1*
X30420Y76268D1*
X30515Y76172D1*
X30564Y76077D1*
X30611Y75934D1*
Y75694D1*
X30564Y75551D1*
X30515Y75455D1*
X30420Y75360D1*
X30324Y75311D1*
X30132D1*
X30037Y75360D1*
X29941Y75455D1*
X29894Y75551D1*
Y75694D1*
X30132D1*
X28613Y75837D2*
X28183D1*
X28039Y75886D1*
X27991Y75934D1*
X27943Y76029D1*
Y76125D1*
X27991Y76220D1*
X28039Y76268D1*
X28183Y76316D1*
X28613D1*
Y75311D1*
X28278Y75837D2*
X27943Y75311D1*
X27013Y76316D2*
X27634D1*
Y75311D1*
X27013D1*
X27634Y75837D2*
X27252D1*
X25987Y76077D2*
X26034Y76172D1*
X26130Y76268D1*
X26226Y76316D1*
X26417D1*
X26513Y76268D1*
X26608Y76172D1*
X26657Y76077D1*
X26704Y75934D1*
Y75694D1*
X26657Y75551D1*
X26608Y75455D1*
X26513Y75360D1*
X26417Y75311D1*
X26226D1*
X26130Y75360D1*
X26034Y75455D1*
X25987Y75551D1*
X25391Y76316D2*
X25487Y76268D1*
X25582Y76172D1*
X25630Y76077D1*
X25678Y75934D1*
Y75694D1*
X25630Y75551D1*
X25582Y75455D1*
X25487Y75360D1*
X25391Y75311D1*
X25199D1*
X25104Y75360D1*
X25008Y75455D1*
X24961Y75551D1*
X24913Y75694D1*
Y75934D1*
X24961Y76077D1*
X25008Y76172D1*
X25104Y76268D1*
X25199Y76316D1*
X25391D1*
X23839Y75311D2*
Y76316D1*
X24222Y75311D1*
X24604Y76316D1*
Y75311D1*
X22766D2*
Y76316D1*
X23148Y75311D1*
X23531Y76316D1*
Y75311D1*
X21836Y76316D2*
X22457D1*
Y75311D1*
X21836D1*
X22457Y75837D2*
X22074D1*
X20857Y76316D2*
Y75311D1*
X21527Y76316D1*
Y75311D1*
X20548Y76316D2*
Y75311D1*
X20213D1*
X20070Y75360D1*
X19973Y75455D1*
X19926Y75551D1*
X19878Y75694D1*
Y75934D1*
X19926Y76077D1*
X19973Y76172D1*
X20070Y76268D1*
X20213Y76316D1*
X20548D1*
X18803Y75311D2*
X19187Y76316D1*
X19570Y75311D1*
X19426Y75646D2*
X18947D1*
X18160Y76316D2*
Y75311D1*
X18495Y76316D2*
X17825D1*
X17516D2*
Y75311D1*
X16920Y76316D2*
X17016Y76268D1*
X17111Y76172D1*
X17160Y76077D1*
X17207Y75934D1*
Y75694D1*
X17160Y75551D1*
X17111Y75455D1*
X17016Y75360D1*
X16920Y75311D1*
X16729D1*
X16634Y75360D1*
X16537Y75455D1*
X16490Y75551D1*
X16442Y75694D1*
Y75934D1*
X16490Y76077D1*
X16537Y76172D1*
X16634Y76268D1*
X16729Y76316D1*
X16920D1*
X15464D2*
Y75311D1*
X16134Y76316D1*
Y75311D1*
X53736Y76000D2*
X53784Y76095D1*
X53880Y76191D1*
X53975Y76239D1*
X54166D1*
X54262Y76191D1*
X54357Y76095D1*
X54406Y76000D1*
X54454Y75856D1*
Y75616D1*
X54406Y75474D1*
X54357Y75378D1*
X54262Y75283D1*
X54166Y75234D1*
X53975D1*
X53880Y75283D1*
X53784Y75378D1*
X53736Y75474D1*
X53140Y76239D2*
X53236Y76191D1*
X53331Y76095D1*
X53380Y76000D1*
X53427Y75856D1*
Y75616D1*
X53380Y75474D1*
X53331Y75378D1*
X53236Y75283D1*
X53140Y75234D1*
X52949D1*
X52854Y75283D1*
X52757Y75378D1*
X52710Y75474D1*
X52662Y75616D1*
Y75856D1*
X52710Y76000D1*
X52757Y76095D1*
X52854Y76191D1*
X52949Y76239D1*
X53140D1*
X51684D2*
Y75234D1*
X52354Y76239D1*
Y75234D1*
X50705Y76239D2*
Y75234D1*
X51375Y76239D1*
Y75234D1*
X49775Y76239D2*
X50396D1*
Y75234D1*
X49775D1*
X50396Y75760D2*
X50014D1*
X48749Y76000D2*
X48796Y76095D1*
X48893Y76191D1*
X48988Y76239D1*
X49179D1*
X49275Y76191D1*
X49370Y76095D1*
X49419Y76000D1*
X49466Y75856D1*
Y75616D1*
X49419Y75474D1*
X49370Y75378D1*
X49275Y75283D1*
X49179Y75234D1*
X48988D1*
X48893Y75283D1*
X48796Y75378D1*
X48749Y75474D1*
X48105Y76239D2*
Y75234D1*
X48440Y76239D2*
X47770D1*
X47461D2*
Y75234D1*
X46865Y76239D2*
X46961Y76191D1*
X47057Y76095D1*
X47105Y76000D1*
X47153Y75856D1*
Y75616D1*
X47105Y75474D1*
X47057Y75378D1*
X46961Y75283D1*
X46865Y75234D1*
X46674D1*
X46579Y75283D1*
X46483Y75378D1*
X46435Y75474D1*
X46388Y75616D1*
Y75856D1*
X46435Y76000D1*
X46483Y76095D1*
X46579Y76191D1*
X46674Y76239D1*
X46865D1*
X45409D2*
Y75234D1*
X46079Y76239D1*
Y75234D1*
X44128Y76239D2*
Y75234D1*
X43793D1*
X43650Y75283D1*
X43553Y75378D1*
X43506Y75474D1*
X43458Y75616D1*
Y75856D1*
X43506Y76000D1*
X43553Y76095D1*
X43650Y76191D1*
X43793Y76239D1*
X44128D1*
X43150D2*
Y75234D1*
X42075D2*
X42458Y76239D1*
X42841Y75234D1*
X42697Y75569D2*
X42219D1*
X41049Y76000D2*
X41096Y76095D1*
X41192Y76191D1*
X41287Y76239D1*
X41479D1*
X41575Y76191D1*
X41670Y76095D1*
X41719Y76000D1*
X41766Y75856D1*
Y75616D1*
X41719Y75474D1*
X41670Y75378D1*
X41575Y75283D1*
X41479Y75234D1*
X41287D1*
X41192Y75283D1*
X41096Y75378D1*
X41049Y75474D1*
Y75616D1*
X41287D1*
X40740Y75760D2*
X40310D1*
X40166Y75809D1*
X40118Y75856D1*
X40070Y75951D1*
Y76048D1*
X40118Y76143D1*
X40166Y76191D1*
X40310Y76239D1*
X40740D1*
Y75234D1*
X40405Y75760D2*
X40070Y75234D1*
X38995D2*
X39379Y76239D1*
X39761Y75234D1*
X39617Y75569D2*
X39139D1*
X37921Y75234D2*
Y76239D1*
X38304Y75234D1*
X38686Y76239D1*
Y75234D1*
X49532Y70642D2*
X49102D1*
X48959Y70691D1*
X48910Y70738D1*
X48862Y70833D1*
Y70929D1*
X48910Y71024D1*
X48959Y71073D1*
X49102Y71121D1*
X49532D1*
Y70116D1*
X49197Y70642D2*
X48862Y70116D1*
X49532Y65918D2*
X49102D1*
X48959Y65966D1*
X48910Y66014D1*
X48862Y66109D1*
Y66205D1*
X48910Y66300D1*
X48959Y66349D1*
X49102Y66396D1*
X49532D1*
Y65391D1*
X49197Y65918D2*
X48862Y65391D1*
X48664Y65856D2*
D37*
Y65353D1*
Y65616D2*
X48616Y65664D1*
X48568Y65688D1*
X48496D1*
X48449Y65664D1*
X48401Y65616D1*
X48377Y65544D1*
Y65497D1*
X48401Y65425D1*
X48449Y65378D1*
X48496Y65353D1*
X48568D1*
X48616Y65378D1*
X48664Y65425D1*
X48103Y65688D2*
X48151Y65664D1*
X48199Y65616D1*
X48223Y65544D1*
Y65497D1*
X48199Y65425D1*
X48151Y65378D1*
X48103Y65353D1*
X48031D1*
X47983Y65378D1*
X47936Y65425D1*
X47911Y65497D1*
Y65544D1*
X47936Y65616D1*
X47983Y65664D1*
X48031Y65688D1*
X48103D1*
X47685Y65856D2*
Y65449D1*
X47661Y65378D1*
X47613Y65353D1*
X47566D1*
X47757Y65688D2*
X47590D1*
X47340Y65856D2*
Y65449D1*
X47316Y65378D1*
X47268Y65353D1*
X47220D1*
X47411Y65688D2*
X47244D1*
X46946D2*
X46994Y65664D1*
X47042Y65616D1*
X47066Y65544D1*
Y65497D1*
X47042Y65425D1*
X46994Y65378D1*
X46946Y65353D1*
X46875D1*
X46826Y65378D1*
X46779Y65425D1*
X46755Y65497D1*
Y65544D1*
X46779Y65616D1*
X46826Y65664D1*
X46875Y65688D1*
X46946D1*
X46600D2*
Y65353D1*
Y65593D2*
X46528Y65664D1*
X46480Y65688D1*
X46409D1*
X46361Y65664D1*
X46337Y65593D1*
Y65353D1*
Y65593D2*
X46265Y65664D1*
X46217Y65688D1*
X46146D1*
X46098Y65664D1*
X46073Y65593D1*
Y65353D1*
X38751Y68836D2*
D40*
X39373D1*
Y67831D1*
Y68357D2*
X38991D1*
X38749Y68021D2*
D37*
Y67614D1*
X38726Y67543D1*
X38678Y67519D1*
X38630D1*
X38821Y67854D2*
X38654D1*
X38476Y67710D2*
X38189D1*
Y67758D1*
X38213Y67806D1*
X38236Y67830D1*
X38284Y67854D1*
X38356D1*
X38404Y67830D1*
X38452Y67782D1*
X38476Y67710D1*
Y67662D1*
X38452Y67590D1*
X38404Y67543D1*
X38356Y67519D1*
X38284D1*
X38236Y67543D1*
X38189Y67590D1*
X38034Y67854D2*
Y67519D1*
Y67758D2*
X37963Y67830D1*
X37914Y67854D1*
X37843D1*
X37795Y67830D1*
X37771Y67758D1*
Y67519D1*
Y67758D2*
X37699Y67830D1*
X37651Y67854D1*
X37580D1*
X37532Y67830D1*
X37508Y67758D1*
Y67519D1*
X37353Y67854D2*
Y67351D1*
Y67782D2*
X37305Y67829D1*
X37258Y67854D1*
X37186D1*
X37138Y67829D1*
X37090Y67782D1*
X37066Y67710D1*
Y67662D1*
X37090Y67590D1*
X37138Y67542D1*
X37186Y67519D1*
X37258D1*
X37305Y67542D1*
X37353Y67590D1*
X69758Y76077D2*
D40*
X69806Y76172D1*
X69902Y76268D1*
X69997Y76316D1*
X70188D1*
X70284Y76268D1*
X70379Y76172D1*
X70428Y76077D1*
X70476Y75934D1*
Y75694D1*
X70428Y75551D1*
X70379Y75455D1*
X70284Y75360D1*
X70188Y75311D1*
X69997D1*
X69902Y75360D1*
X69806Y75455D1*
X69758Y75551D1*
X68683Y75311D2*
X69067Y76316D1*
X69449Y75311D1*
X69306Y75646D2*
X68827D1*
X68375Y76316D2*
Y75599D1*
X68327Y75455D1*
X68231Y75360D1*
X68087Y75311D1*
X67992D1*
X67848Y75360D1*
X67752Y75455D1*
X67705Y75599D1*
Y76316D1*
X67061D2*
Y75311D1*
X67396Y76316D2*
X66726D1*
X66417D2*
Y75311D1*
X65821Y76316D2*
X65917Y76268D1*
X66012Y76172D1*
X66061Y76077D1*
X66108Y75934D1*
Y75694D1*
X66061Y75551D1*
X66012Y75455D1*
X65917Y75360D1*
X65821Y75311D1*
X65630D1*
X65535Y75360D1*
X65439Y75455D1*
X65391Y75551D1*
X65344Y75694D1*
Y75934D1*
X65391Y76077D1*
X65439Y76172D1*
X65535Y76268D1*
X65630Y76316D1*
X65821D1*
X64365D2*
Y75311D1*
X65035Y76316D1*
Y75311D1*
X74434Y68421D2*
X74818Y69426D1*
X75200Y68421D1*
X75056Y68756D2*
X74578D1*
X74125Y69426D2*
Y68421D1*
X73551D1*
X73243Y69426D2*
Y68421D1*
X72669D1*
X71388Y68900D2*
X70957D1*
X70814Y68948D1*
X70766Y68996D1*
X70718Y69091D1*
Y69235D1*
X70766Y69330D1*
X70814Y69379D1*
X70957Y69426D1*
X71388D1*
Y68421D1*
X69644D2*
X70027Y69426D1*
X70410Y68421D1*
X70266Y68756D2*
X69787D1*
X69335Y69426D2*
Y68421D1*
X69000D1*
X68856Y68470D1*
X68760Y68565D1*
X68712Y68661D1*
X68665Y68804D1*
Y69044D1*
X68712Y69187D1*
X68760Y69283D1*
X68856Y69379D1*
X69000Y69426D1*
X69335D1*
X67686Y69283D2*
X67781Y69379D1*
X67925Y69426D1*
X68116D1*
X68260Y69379D1*
X68356Y69283D1*
Y69187D1*
X68307Y69091D1*
X68260Y69044D1*
X68165Y68996D1*
X67877Y68900D1*
X67781Y68853D1*
X67734Y68804D1*
X67686Y68709D1*
Y68565D1*
X67781Y68470D1*
X67925Y68421D1*
X68116D1*
X68260Y68470D1*
X68356Y68565D1*
X65640Y68421D2*
Y69426D1*
X66023Y68421D1*
X66405Y69426D1*
Y68421D1*
X65332Y69426D2*
Y68709D1*
X65284Y68565D1*
X65188Y68470D1*
X65044Y68421D1*
X64949D1*
X64806Y68470D1*
X64709Y68565D1*
X64662Y68709D1*
Y69426D1*
X63683Y69283D2*
X63778Y69379D1*
X63922Y69426D1*
X64113D1*
X64257Y69379D1*
X64353Y69283D1*
Y69187D1*
X64304Y69091D1*
X64257Y69044D1*
X64162Y68996D1*
X63874Y68900D1*
X63778Y68853D1*
X63731Y68804D1*
X63683Y68709D1*
Y68565D1*
X63778Y68470D1*
X63922Y68421D1*
X64113D1*
X64257Y68470D1*
X64353Y68565D1*
X63039Y69426D2*
Y68421D1*
X63374Y69426D2*
X62705D1*
X61424D2*
Y68421D1*
X60993D1*
X60849Y68470D1*
X60801Y68518D1*
X60754Y68613D1*
Y68756D1*
X60801Y68853D1*
X60849Y68900D1*
X60993Y68948D1*
X60849Y68996D1*
X60801Y69044D1*
X60754Y69139D1*
Y69235D1*
X60801Y69330D1*
X60849Y69379D1*
X60993Y69426D1*
X61424D1*
Y68948D2*
X60993D1*
X59824Y69426D2*
X60445D1*
Y68421D1*
X59824D1*
X60445Y68948D2*
X60063D1*
X75791Y67522D2*
X75359D1*
X75217Y67570D1*
X75168Y67618D1*
X75121Y67713D1*
Y67857D1*
X75168Y67952D1*
X75217Y68001D1*
X75359Y68048D1*
X75791D1*
Y67043D1*
X74812Y67570D2*
X74382D1*
X74238Y67618D1*
X74190Y67666D1*
X74142Y67761D1*
Y67857D1*
X74190Y67952D1*
X74238Y68001D1*
X74382Y68048D1*
X74812D1*
Y67043D1*
X74477Y67570D2*
X74142Y67043D1*
X73546Y68048D2*
X73642Y68001D1*
X73737Y67905D1*
X73786Y67809D1*
X73833Y67666D1*
Y67426D1*
X73786Y67283D1*
X73737Y67187D1*
X73642Y67092D1*
X73546Y67043D1*
X73355D1*
X73260Y67092D1*
X73163Y67187D1*
X73116Y67283D1*
X73068Y67426D1*
Y67666D1*
X73116Y67809D1*
X73163Y67905D1*
X73260Y68001D1*
X73355Y68048D1*
X73546D1*
X72760Y67522D2*
X72328D1*
X72186Y67570D1*
X72137Y67618D1*
X72090Y67713D1*
Y67857D1*
X72137Y67952D1*
X72186Y68001D1*
X72328Y68048D1*
X72760D1*
Y67043D1*
X71160Y68048D2*
X71781D1*
Y67043D1*
X71160D1*
X71781Y67570D2*
X71398D1*
X70851D2*
X70421D1*
X70277Y67618D1*
X70229Y67666D1*
X70181Y67761D1*
Y67857D1*
X70229Y67952D1*
X70277Y68001D1*
X70421Y68048D1*
X70851D1*
Y67043D1*
X70516Y67570D2*
X70181Y67043D1*
X69872Y68048D2*
Y67043D1*
X69299D1*
X68990Y68048D2*
X68607Y67570D1*
Y67043D1*
X68225Y68048D2*
X68607Y67570D1*
X66944Y68048D2*
Y67043D1*
X65965Y68048D2*
Y67043D1*
X66635Y68048D1*
Y67043D1*
X64987Y67905D2*
X65082Y68001D1*
X65225Y68048D1*
X65417D1*
X65560Y68001D1*
X65657Y67905D1*
Y67809D1*
X65608Y67713D1*
X65560Y67666D1*
X65465Y67618D1*
X65178Y67522D1*
X65082Y67475D1*
X65034Y67426D1*
X64987Y67331D1*
Y67187D1*
X65082Y67092D1*
X65225Y67043D1*
X65417D1*
X65560Y67092D1*
X65657Y67187D1*
X64678Y68048D2*
Y67331D1*
X64630Y67187D1*
X64534Y67092D1*
X64391Y67043D1*
X64295D1*
X64152Y67092D1*
X64056Y67187D1*
X64008Y67331D1*
Y68048D1*
X63699D2*
Y67043D1*
X63126D1*
X62051D2*
X62434Y68048D1*
X62817Y67043D1*
X62673Y67378D2*
X62194D1*
X61407Y68048D2*
Y67043D1*
X61742Y68048D2*
X61072D1*
X60142D2*
X60763D1*
Y67043D1*
X60142D1*
X60763Y67570D2*
X60381D1*
X59833Y68048D2*
Y67043D1*
X59498D1*
X59355Y67092D1*
X59258Y67187D1*
X59211Y67283D1*
X59163Y67426D1*
Y67666D1*
X59211Y67809D1*
X59258Y67905D1*
X59355Y68001D1*
X59498Y68048D1*
X59833D1*
X71657Y73624D2*
X71226D1*
X71083Y73672D1*
X71034Y73721D1*
X70987Y73816D1*
Y73959D1*
X71034Y74054D1*
X71083Y74103D1*
X71226Y74151D1*
X71657D1*
Y73146D1*
X70678Y73672D2*
X70248D1*
X70104Y73721D1*
X70056Y73768D1*
X70008Y73863D1*
Y73959D1*
X70056Y74054D1*
X70104Y74103D1*
X70248Y74151D1*
X70678D1*
Y73146D1*
X70343Y73672D2*
X70008Y73146D1*
X69412Y74151D2*
X69508Y74103D1*
X69603Y74007D1*
X69652Y73912D1*
X69699Y73768D1*
Y73528D1*
X69652Y73386D1*
X69603Y73290D1*
X69508Y73194D1*
X69412Y73146D1*
X69221D1*
X69126Y73194D1*
X69030Y73290D1*
X68982Y73386D1*
X68934Y73528D1*
Y73768D1*
X68982Y73912D1*
X69030Y74007D1*
X69126Y74103D1*
X69221Y74151D1*
X69412D1*
X68291D2*
Y73146D1*
X68626Y74151D2*
X67956D1*
X67360D2*
X67456Y74103D1*
X67551Y74007D1*
X67599Y73912D1*
X67647Y73768D1*
Y73528D1*
X67599Y73386D1*
X67551Y73290D1*
X67456Y73194D1*
X67360Y73146D1*
X67168D1*
X67073Y73194D1*
X66977Y73290D1*
X66930Y73386D1*
X66882Y73528D1*
Y73768D1*
X66930Y73912D1*
X66977Y74007D1*
X67073Y74103D1*
X67168Y74151D1*
X67360D1*
X66238D2*
Y73146D1*
X66573Y74151D2*
X65903D1*
X65595D2*
X65212Y73672D1*
Y73146D1*
X64830Y74151D2*
X65212Y73672D1*
X64521Y73624D2*
X64090D1*
X63947Y73672D1*
X63899Y73721D1*
X63851Y73816D1*
Y73959D1*
X63899Y74054D1*
X63947Y74103D1*
X64090Y74151D1*
X64521D1*
Y73146D1*
X62921Y74151D2*
X63542D1*
Y73146D1*
X62921D1*
X63542Y73672D2*
X63160D1*
X72039Y65883D2*
Y64878D1*
X72709Y65883D1*
Y64878D1*
X71443Y65883D2*
X71539Y65835D1*
X71634Y65739D1*
X71682Y65644D1*
X71730Y65500D1*
Y65261D1*
X71682Y65118D1*
X71634Y65022D1*
X71539Y64927D1*
X71443Y64878D1*
X71251D1*
X71156Y64927D1*
X71060Y65022D1*
X71013Y65118D1*
X70965Y65261D1*
Y65500D1*
X71013Y65644D1*
X71060Y65739D1*
X71156Y65835D1*
X71251Y65883D1*
X71443D1*
X69397D2*
X69493Y65835D1*
X69588Y65739D1*
X69637Y65644D1*
X69684Y65500D1*
Y65261D1*
X69637Y65118D1*
X69588Y65022D1*
X69493Y64927D1*
X69397Y64878D1*
X69206D1*
X69110Y64927D1*
X69014Y65022D1*
X68967Y65118D1*
X68919Y65261D1*
Y65500D1*
X68967Y65644D1*
X69014Y65739D1*
X69110Y65835D1*
X69206Y65883D1*
X69397D1*
X68610Y65357D2*
X68179D1*
X68037Y65404D1*
X67988Y65453D1*
X67941Y65548D1*
Y65692D1*
X67988Y65787D1*
X68037Y65835D1*
X68179Y65883D1*
X68610D1*
Y64878D1*
X67011Y65883D2*
X67632D1*
Y64878D1*
X67011D1*
X67632Y65404D2*
X67249D1*
X66702D2*
X66272D1*
X66128Y65453D1*
X66079Y65500D1*
X66032Y65596D1*
Y65692D1*
X66079Y65787D1*
X66128Y65835D1*
X66272Y65883D1*
X66702D1*
Y64878D1*
X66367Y65404D2*
X66032Y64878D1*
X64957D2*
X65341Y65883D1*
X65723Y64878D1*
X65579Y65213D2*
X65101D1*
X64313Y65883D2*
Y64878D1*
X64648Y65883D2*
X63978D1*
X63670D2*
Y64878D1*
X63074Y65883D2*
X63170Y65835D1*
X63265Y65739D1*
X63313Y65644D1*
X63361Y65500D1*
Y65261D1*
X63313Y65118D1*
X63265Y65022D1*
X63170Y64927D1*
X63074Y64878D1*
X62882D1*
X62787Y64927D1*
X62691Y65022D1*
X62644Y65118D1*
X62596Y65261D1*
Y65500D1*
X62644Y65644D1*
X62691Y65739D1*
X62787Y65835D1*
X62882Y65883D1*
X63074D1*
X61617D2*
Y64878D1*
X62287Y65883D1*
Y64878D1*
X27597Y62242D2*
Y63246D1*
X28076Y62577D1*
X27358D1*
X19759Y67337D2*
Y67385D1*
X19712Y67481D1*
X19664Y67529D1*
X19568Y67576D1*
X19377D1*
X19282Y67529D1*
X19234Y67481D1*
X19186Y67385D1*
Y67290D1*
X19234Y67194D1*
X19329Y67051D1*
X19808Y66573D1*
X19138D1*
X73990Y72773D2*
Y71768D1*
X73655D1*
X73511Y71817D1*
X73415Y71912D1*
X73368Y72008D1*
X73320Y72150D1*
Y72390D1*
X73368Y72534D1*
X73415Y72629D1*
X73511Y72725D1*
X73655Y72773D1*
X73990D1*
X72245Y71768D2*
X72629Y72773D1*
X73011Y71768D1*
X72868Y72103D2*
X72389D1*
X71267Y72773D2*
Y71768D1*
X71936Y72773D1*
Y71768D1*
X70240Y72534D2*
X70288Y72629D1*
X70384Y72725D1*
X70479Y72773D1*
X70670D1*
X70767Y72725D1*
X70862Y72629D1*
X70910Y72534D1*
X70958Y72390D1*
Y72150D1*
X70910Y72008D1*
X70862Y71912D1*
X70767Y71817D1*
X70670Y71768D1*
X70479D1*
X70384Y71817D1*
X70288Y71912D1*
X70240Y72008D1*
Y72150D1*
X70479D1*
X69310Y72773D2*
X69932D1*
Y71768D1*
X69310D1*
X69932Y72294D2*
X69549D1*
X69002D2*
X68572D1*
X68428Y72343D1*
X68379Y72390D1*
X68332Y72485D1*
Y72581D1*
X68379Y72676D1*
X68428Y72725D1*
X68572Y72773D1*
X69002D1*
Y71768D1*
X68667Y72294D2*
X68332Y71768D1*
X67736Y72773D2*
X67832Y72725D1*
X67927Y72629D1*
X67975Y72534D1*
X68023Y72390D1*
Y72150D1*
X67975Y72008D1*
X67927Y71912D1*
X67832Y71817D1*
X67736Y71768D1*
X67544D1*
X67449Y71817D1*
X67353Y71912D1*
X67306Y72008D1*
X67258Y72150D1*
Y72390D1*
X67306Y72534D1*
X67353Y72629D1*
X67449Y72725D1*
X67544Y72773D1*
X67736D1*
X66949D2*
Y72055D1*
X66902Y71912D1*
X66806Y71817D1*
X66662Y71768D1*
X66567D1*
X66423Y71817D1*
X66327Y71912D1*
X66279Y72055D1*
Y72773D1*
X65301Y72629D2*
X65396Y72725D1*
X65540Y72773D1*
X65731D1*
X65874Y72725D1*
X65971Y72629D1*
Y72534D1*
X65922Y72438D1*
X65874Y72390D1*
X65779Y72343D1*
X65492Y72247D1*
X65396Y72199D1*
X65348Y72150D1*
X65301Y72055D1*
Y71912D1*
X65396Y71817D1*
X65540Y71768D1*
X65731D1*
X65874Y71817D1*
X65971Y71912D1*
X63255Y71768D2*
Y72773D1*
X63637Y71768D1*
X64020Y72773D1*
Y71768D1*
X62180D2*
X62564Y72773D1*
X62946Y71768D1*
X62803Y72103D2*
X62324D1*
X61871Y72773D2*
Y71768D1*
X61298D1*
X60989Y72270D2*
X60436D1*
X75434Y71395D2*
X76057D1*
Y70390D1*
Y70916D2*
X75674D1*
X75126Y71395D2*
Y70677D1*
X75078Y70534D1*
X74982Y70439D1*
X74838Y70390D1*
X74743D1*
X74599Y70439D1*
X74503Y70534D1*
X74456Y70677D1*
Y71395D1*
X73477D2*
Y70390D1*
X74147Y71395D1*
Y70390D1*
X72451Y71156D2*
X72498Y71251D1*
X72595Y71347D1*
X72690Y71395D1*
X72881D1*
X72977Y71347D1*
X73072Y71251D1*
X73121Y71156D1*
X73168Y71012D1*
Y70772D1*
X73121Y70630D1*
X73072Y70534D1*
X72977Y70439D1*
X72881Y70390D1*
X72690D1*
X72595Y70439D1*
X72498Y70534D1*
X72451Y70630D1*
X71807Y71395D2*
Y70390D1*
X72142Y71395D2*
X71472D1*
X71163D2*
Y70390D1*
X70567Y71395D2*
X70663Y71347D1*
X70759Y71251D1*
X70807Y71156D1*
X70855Y71012D1*
Y70772D1*
X70807Y70630D1*
X70759Y70534D1*
X70663Y70439D1*
X70567Y70390D1*
X70376D1*
X70281Y70439D1*
X70185Y70534D1*
X70137Y70630D1*
X70090Y70772D1*
Y71012D1*
X70137Y71156D1*
X70185Y71251D1*
X70281Y71347D1*
X70376Y71395D1*
X70567D1*
X69111D2*
Y70390D1*
X69781Y71395D1*
Y70390D1*
X67065D2*
Y71395D1*
X67448Y70390D1*
X67830Y71395D1*
Y70390D1*
X65991D2*
X66374Y71395D1*
X66757Y70390D1*
X66613Y70725D2*
X66134D1*
X65682Y71395D2*
X65299Y70916D1*
Y70390D1*
X64917Y71395D2*
X65299Y70916D1*
X63349Y71395D2*
X63445Y71347D1*
X63540Y71251D1*
X63588Y71156D1*
X63636Y71012D1*
Y70772D1*
X63588Y70630D1*
X63540Y70534D1*
X63445Y70439D1*
X63349Y70390D1*
X63157D1*
X63062Y70439D1*
X62966Y70534D1*
X62919Y70630D1*
X62871Y70772D1*
Y71012D1*
X62919Y71156D1*
X62966Y71251D1*
X63062Y71347D1*
X63157Y71395D1*
X63349D1*
X61845Y71156D2*
X61892Y71251D1*
X61989Y71347D1*
X62084Y71395D1*
X62275D1*
X62371Y71347D1*
X62466Y71251D1*
X62515Y71156D1*
X62562Y71012D1*
Y70772D1*
X62515Y70630D1*
X62466Y70534D1*
X62371Y70439D1*
X62275Y70390D1*
X62084D1*
X61989Y70439D1*
X61892Y70534D1*
X61845Y70630D1*
X60819Y71156D2*
X60866Y71251D1*
X60962Y71347D1*
X61057Y71395D1*
X61249D1*
X61345Y71347D1*
X61440Y71251D1*
X61489Y71156D1*
X61536Y71012D1*
Y70772D1*
X61489Y70630D1*
X61440Y70534D1*
X61345Y70439D1*
X61249Y70390D1*
X61057D1*
X60962Y70439D1*
X60866Y70534D1*
X60819Y70630D1*
X60510Y71395D2*
Y70677D1*
X60462Y70534D1*
X60366Y70439D1*
X60223Y70390D1*
X60127D1*
X59984Y70439D1*
X59888Y70534D1*
X59840Y70677D1*
Y71395D1*
X59531Y70916D2*
X59101D1*
X58958Y70965D1*
X58909Y71012D1*
X58861Y71107D1*
Y71203D1*
X58909Y71299D1*
X58958Y71347D1*
X59101Y71395D1*
X59531D1*
Y70390D1*
X59196Y70916D2*
X58861Y70390D1*
X76468Y64505D2*
X76228Y63500D1*
X75990Y64505D1*
X75751Y63500D1*
X75511Y64505D1*
X75202D2*
Y63500D1*
X74559Y64505D2*
Y63500D1*
X74893Y64505D2*
X74224D1*
X73915D2*
Y63500D1*
X73245Y64505D2*
Y63500D1*
X73915Y64026D2*
X73245D1*
X72649Y64505D2*
X72745Y64457D1*
X72840Y64361D1*
X72889Y64266D1*
X72936Y64122D1*
Y63883D1*
X72889Y63740D1*
X72840Y63644D1*
X72745Y63549D1*
X72649Y63500D1*
X72458D1*
X72362Y63549D1*
X72266Y63644D1*
X72219Y63740D1*
X72171Y63883D1*
Y64122D1*
X72219Y64266D1*
X72266Y64361D1*
X72362Y64457D1*
X72458Y64505D1*
X72649D1*
X71862D2*
Y63788D1*
X71815Y63644D1*
X71719Y63549D1*
X71575Y63500D1*
X71480D1*
X71336Y63549D1*
X71240Y63644D1*
X71193Y63788D1*
Y64505D1*
X70549D2*
Y63500D1*
X70884Y64505D2*
X70214D1*
X68933Y63979D2*
X68502D1*
X68359Y64026D1*
X68311Y64075D1*
X68263Y64170D1*
Y64314D1*
X68311Y64409D1*
X68359Y64457D1*
X68502Y64505D1*
X68933D1*
Y63500D1*
X67954Y64026D2*
X67524D1*
X67381Y64075D1*
X67332Y64122D1*
X67285Y64218D1*
Y64314D1*
X67332Y64409D1*
X67381Y64457D1*
X67524Y64505D1*
X67954D1*
Y63500D1*
X67620Y64026D2*
X67285Y63500D1*
X66688Y64505D2*
X66785Y64457D1*
X66880Y64361D1*
X66928Y64266D1*
X66976Y64122D1*
Y63883D1*
X66928Y63740D1*
X66880Y63644D1*
X66785Y63549D1*
X66688Y63500D1*
X66497D1*
X66402Y63549D1*
X66306Y63644D1*
X66258Y63740D1*
X66211Y63883D1*
Y64122D1*
X66258Y64266D1*
X66306Y64361D1*
X66402Y64457D1*
X66497Y64505D1*
X66688D1*
X65280D2*
X65902D1*
Y63500D1*
Y64026D2*
X65520D1*
X64350Y64505D2*
X64971D1*
Y63500D1*
X64350D1*
X64971Y64026D2*
X64589D1*
X63371Y64361D2*
X63466Y64457D1*
X63610Y64505D1*
X63801D1*
X63945Y64457D1*
X64041Y64361D1*
Y64266D1*
X63992Y64170D1*
X63945Y64122D1*
X63850Y64075D1*
X63562Y63979D1*
X63466Y63931D1*
X63419Y63883D1*
X63371Y63788D1*
Y63644D1*
X63466Y63549D1*
X63610Y63500D1*
X63801D1*
X63945Y63549D1*
X64041Y63644D1*
X62392Y64361D2*
X62488Y64457D1*
X62631Y64505D1*
X62822D1*
X62966Y64457D1*
X63062Y64361D1*
Y64266D1*
X63014Y64170D1*
X62966Y64122D1*
X62871Y64075D1*
X62584Y63979D1*
X62488Y63931D1*
X62440Y63883D1*
X62392Y63788D1*
Y63644D1*
X62488Y63549D1*
X62631Y63500D1*
X62822D1*
X62966Y63549D1*
X63062Y63644D1*
X62084Y64505D2*
Y63500D1*
X61487Y64505D2*
X61584Y64457D1*
X61679Y64361D1*
X61727Y64266D1*
X61775Y64122D1*
Y63883D1*
X61727Y63740D1*
X61679Y63644D1*
X61584Y63549D1*
X61487Y63500D1*
X61296D1*
X61201Y63549D1*
X61105Y63644D1*
X61058Y63740D1*
X61010Y63883D1*
Y64122D1*
X61058Y64266D1*
X61105Y64361D1*
X61201Y64457D1*
X61296Y64505D1*
X61487D1*
X60031D2*
Y63500D1*
X60701Y64505D1*
Y63500D1*
X58956D2*
X59340Y64505D1*
X59723Y63500D1*
X59579Y63835D2*
X59100D1*
X58648Y64505D2*
Y63500D1*
X58074D1*
X71387Y62983D2*
X71482Y63079D1*
X71625Y63127D1*
X71817D1*
X71960Y63079D1*
X72057Y62983D1*
Y62888D1*
X72008Y62792D1*
X71960Y62745D1*
X71865Y62697D1*
X71578Y62601D1*
X71482Y62553D1*
X71434Y62505D1*
X71387Y62410D1*
Y62266D1*
X71482Y62171D1*
X71625Y62122D1*
X71817D1*
X71960Y62171D1*
X72057Y62266D1*
X71078Y63127D2*
Y62410D1*
X71030Y62266D1*
X70934Y62171D1*
X70791Y62122D1*
X70695D1*
X70552Y62171D1*
X70456Y62266D1*
X70408Y62410D1*
Y63127D1*
X70099Y62601D2*
X69668D1*
X69526Y62648D1*
X69477Y62697D1*
X69429Y62792D1*
Y62936D1*
X69477Y63031D1*
X69526Y63079D1*
X69668Y63127D1*
X70099D1*
Y62122D1*
X68499Y63127D2*
X69121D1*
Y62122D1*
X68499D1*
X69121Y62648D2*
X68738D1*
X68191D2*
X67761D1*
X67617Y62697D1*
X67568Y62745D1*
X67521Y62840D1*
Y62936D1*
X67568Y63031D1*
X67617Y63079D1*
X67761Y63127D1*
X68191D1*
Y62122D1*
X67856Y62648D2*
X67521Y62122D1*
X67212Y63127D2*
X66829Y62122D1*
X66447Y63127D1*
X66138D2*
Y62122D1*
X65160Y62983D2*
X65255Y63079D1*
X65398Y63127D1*
X65590D1*
X65733Y63079D1*
X65829Y62983D1*
Y62888D1*
X65781Y62792D1*
X65733Y62745D1*
X65638Y62697D1*
X65351Y62601D1*
X65255Y62553D1*
X65207Y62505D1*
X65160Y62410D1*
Y62266D1*
X65255Y62171D1*
X65398Y62122D1*
X65590D1*
X65733Y62171D1*
X65829Y62266D1*
X64851Y63127D2*
Y62122D1*
X64255Y63127D2*
X64351Y63079D1*
X64446Y62983D1*
X64494Y62888D1*
X64542Y62745D1*
Y62505D1*
X64494Y62362D1*
X64446Y62266D1*
X64351Y62171D1*
X64255Y62122D1*
X64063D1*
X63968Y62171D1*
X63872Y62266D1*
X63825Y62362D1*
X63777Y62505D1*
Y62745D1*
X63825Y62888D1*
X63872Y62983D1*
X63968Y63079D1*
X64063Y63127D1*
X64255D1*
X62798D2*
Y62122D1*
X63468Y63127D1*
Y62122D1*
M02*
