G04 DipTrace 2.4.0.2*
%INTOP_SILK.GTO*%
%MOIN*%
%ADD10C,0.0098*%
%ADD17C,0.0*%
%ADD37C,0.0077*%
%ADD39C,0.0216*%
%ADD41C,0.0124*%
%FSLAX44Y44*%
G04*
G70*
G90*
G75*
G01*
%LNTopSilk*%
%LPD*%
X25593Y5456D2*
D10*
Y5968D1*
X27188Y5180D2*
Y4669D1*
X48256Y43187D2*
D17*
X44750Y79002D2*
D3*
X48256Y54998D2*
D3*
G36*
X55909Y27290D2*
Y25322D1*
X36224D1*
Y27290D1*
X55909D1*
G37*
Y25322D2*
D17*
D3*
G36*
X42285Y32821D2*
X40975Y30674D1*
X39346Y31780D1*
X40589Y33832D1*
X40986Y34654D1*
X41100Y34958D1*
X41145Y35169D1*
X41100Y35377D1*
X40813Y36058D1*
X37715Y41336D1*
X37452Y41960D1*
X37273Y42537D1*
X37208Y43038D1*
X37273Y43540D1*
X37452Y44117D1*
X38036Y45382D1*
X39346Y47528D1*
X40975Y46423D1*
X39733Y44370D1*
X39335Y43549D1*
X39221Y43245D1*
X39176Y43034D1*
X39221Y42826D1*
X39508Y42145D1*
X42606Y36867D1*
X42870Y36243D1*
X43048Y35666D1*
X43113Y35164D1*
X43048Y34663D1*
X42870Y34086D1*
X42285Y32821D1*
G37*
X40975Y30674D2*
D17*
D3*
G36*
X48191Y32821D2*
X46880Y30674D1*
X45252Y31780D1*
X46494Y33832D1*
X46892Y34654D1*
X47005Y34958D1*
X47050Y35169D1*
X47005Y35377D1*
X46719Y36058D1*
X43620Y41336D1*
X43357Y41960D1*
X43179Y42537D1*
X43113Y43038D1*
X43179Y43540D1*
X43357Y44117D1*
X43942Y45382D1*
X45252Y47528D1*
X46881Y46423D1*
X45638Y44370D1*
X45240Y43549D1*
X45127Y43245D1*
X45082Y43034D1*
X45127Y42826D1*
X45414Y42145D1*
X48512Y36867D1*
X48775Y36243D1*
X48953Y35666D1*
X49019Y35164D1*
X48953Y34663D1*
X48775Y34086D1*
X48191Y32821D1*
G37*
X46880Y30674D2*
D17*
D3*
G36*
X54096Y32821D2*
X52786Y30674D1*
X51157Y31780D1*
X52400Y33832D1*
X52797Y34654D1*
X52911Y34958D1*
X52956Y35169D1*
X52911Y35377D1*
X52624Y36057D1*
X49526Y41336D1*
X49263Y41960D1*
X49084Y42537D1*
X49019Y43038D1*
X49084Y43540D1*
X49263Y44117D1*
X49847Y45382D1*
X51157Y47528D1*
X52786Y46423D1*
X51544Y44370D1*
X51146Y43549D1*
X51032Y43245D1*
X50987Y43034D1*
X51032Y42825D1*
X51319Y42145D1*
X54417Y36867D1*
X54681Y36243D1*
X54859Y35666D1*
X54924Y35164D1*
X54859Y34663D1*
X54681Y34086D1*
X54096Y32821D1*
G37*
X52786Y30674D2*
D17*
D3*
G36*
X68320Y20177D2*
X67909Y20150D1*
X23812Y20177D1*
X23415Y20258D1*
X23036Y20391D1*
X22678Y20572D1*
X22346Y20800D1*
X22043Y21073D1*
X21773Y21388D1*
X21540Y21743D1*
X23249Y22718D1*
D1*
X23123Y23016D1*
X23062Y23370D1*
X23098Y23756D1*
X23258Y24153D1*
X45101Y61154D1*
X45289Y61402D1*
X45518Y61586D1*
X45780Y61700D1*
X46066Y61739D1*
X46352Y61700D1*
X46614Y61586D1*
X46844Y61402D1*
X47032Y61154D1*
X68874Y24153D1*
X69035Y23756D1*
X69070Y23370D1*
X69009Y23016D1*
X68883Y22718D1*
X68768Y22549D1*
X68571Y22351D1*
X68287Y22187D1*
X67909Y22118D1*
X24223D1*
X23845Y22187D1*
X23561Y22351D1*
X23365Y22549D1*
X23249Y22718D1*
X21540Y21743D1*
X21342Y22150D1*
X21202Y22575D1*
X21119Y23011D1*
X21093Y23452D1*
X21125Y23893D1*
X21213Y24328D1*
X21359Y24750D1*
X43640Y62500D1*
X43910Y62807D1*
X44212Y63073D1*
X44542Y63296D1*
X44896Y63473D1*
X45270Y63602D1*
X45662Y63681D1*
X46066Y63708D1*
X46470Y63681D1*
X46862Y63602D1*
X47237Y63473D1*
X47591Y63296D1*
X47921Y63073D1*
X48222Y62807D1*
X48492Y62500D1*
X70773Y24750D1*
X70919Y24328D1*
X71008Y23893D1*
X71039Y23452D1*
X71014Y23011D1*
X70931Y22574D1*
X70790Y22150D1*
X70593Y21742D1*
X70359Y21388D1*
X70089Y21073D1*
X69786Y20800D1*
X69454Y20572D1*
X69096Y20391D1*
X68717Y20258D1*
X68320Y20177D1*
G37*
X67909Y20150D2*
D17*
D3*
X46066Y61739D2*
D3*
G36*
X83315Y6708D2*
X83074Y6696D1*
X8817Y6708D1*
X8583Y6744D1*
X8357Y6802D1*
X8140Y6882D1*
X7933Y6982D1*
X7738Y7100D1*
X7557Y7236D1*
X7389Y7389D1*
X7236Y7557D1*
X7100Y7738D1*
X6982Y7933D1*
X6882Y8140D1*
X6802Y8357D1*
X6744Y8583D1*
X6708Y8817D1*
Y83315D1*
X6744Y83550D1*
X6802Y83776D1*
X6882Y83993D1*
X6982Y84199D1*
X7100Y84394D1*
X7236Y84576D1*
X7389Y84744D1*
X7945Y84187D1*
D1*
X8178Y84380D1*
X8446Y84525D1*
X8741Y84617D1*
X9058Y84649D1*
X83074D1*
X83391Y84617D1*
X83686Y84525D1*
X83954Y84380D1*
X84187Y84187D1*
X84379Y83954D1*
X84525Y83686D1*
X84617Y83391D1*
X84649Y83074D1*
Y9058D1*
X84617Y8741D1*
X84525Y8446D1*
X84379Y8178D1*
X84187Y7945D1*
X83954Y7753D1*
X83686Y7607D1*
X83391Y7516D1*
X83074Y7483D1*
X9058D1*
X8741Y7516D1*
X8446Y7607D1*
X8178Y7753D1*
X7945Y7945D1*
X7753Y8178D1*
X7607Y8446D1*
X7515Y8741D1*
X7483Y9058D1*
Y83074D1*
X7515Y83391D1*
X7607Y83686D1*
X7753Y83954D1*
X7945Y84187D1*
X7389Y84744D1*
X7557Y84896D1*
X7738Y85032D1*
X7933Y85151D1*
X8140Y85250D1*
X8357Y85330D1*
X8583Y85388D1*
X8817Y85424D1*
X83315D1*
X83549Y85388D1*
X83776Y85330D1*
X83993Y85250D1*
X84199Y85151D1*
X84394Y85032D1*
X84576Y84896D1*
X84744Y84744D1*
X84896Y84576D1*
X85032Y84394D1*
X85151Y84199D1*
X85250Y83993D1*
X85330Y83776D1*
X85388Y83550D1*
X85424Y83315D1*
Y8817D1*
X85388Y8583D1*
X85330Y8357D1*
X85250Y8140D1*
X85151Y7933D1*
X85032Y7738D1*
X84896Y7557D1*
X84744Y7389D1*
X84576Y7236D1*
X84394Y7100D1*
X84199Y6982D1*
X83993Y6882D1*
X83776Y6802D1*
X83549Y6744D1*
X83315Y6708D1*
G37*
X83074Y6696D2*
D17*
D3*
G36*
X31190Y74864D2*
X32297D1*
X32158Y74398D1*
X31967Y73989D1*
X31725Y73638D1*
X31432Y73343D1*
X31088Y73113D1*
X30713Y72948D1*
X30309Y72850D1*
X29875Y72817D1*
X29485Y72850D1*
X29129Y72929D1*
X28807Y73055D1*
X28518Y73227D1*
X28260Y73422D1*
X28041Y73632D1*
X27859Y73857D1*
X27714Y74096D1*
X27577Y74404D1*
X27525Y74575D1*
X27483Y74785D1*
X27412Y76435D1*
X27483Y78095D1*
X27526Y78295D1*
X27578Y78475D1*
X27641Y78634D1*
X27859Y79014D1*
X28041Y79240D1*
X28261Y79453D1*
X28519Y79653D1*
X28807Y79824D1*
X29130Y79948D1*
X29486Y80024D1*
X29876Y80053D1*
X30352Y80011D1*
X30782Y79896D1*
X31165Y79707D1*
X31503Y79444D1*
X31788Y79123D1*
X32016Y78767D1*
X32186Y78375D1*
X32297Y77947D1*
X31189D1*
X31112Y78154D1*
X31009Y78346D1*
X30880Y78521D1*
X30725Y78681D1*
X30540Y78808D1*
X30336Y78900D1*
X30114Y78957D1*
X29872Y78979D1*
X29694Y78966D1*
X29529Y78936D1*
X29377Y78890D1*
X29237Y78828D1*
X29109Y78750D1*
X28993Y78663D1*
X28891Y78566D1*
X28708Y78337D1*
X28632Y78198D1*
X28573Y78041D1*
X28532Y77869D1*
X28475Y77319D1*
Y75553D1*
X28532Y75011D1*
X28573Y74834D1*
X28632Y74675D1*
X28708Y74533D1*
X28891Y74304D1*
X28994Y74210D1*
X29109Y74126D1*
X29377Y73981D1*
X29529Y73931D1*
X29694Y73901D1*
X29873Y73890D1*
X30286Y73951D1*
X30643Y74134D1*
X30944Y74438D1*
X31190Y74864D1*
G37*
X32297D2*
D17*
D3*
G36*
X37276Y72875D2*
X36741Y74468D1*
X36443Y75424D1*
D1*
X34429D1*
X35427Y78538D1*
X35446D1*
X36443Y75424D1*
X36741Y74468D1*
X34126D1*
X33597Y72875D1*
X32490D1*
X34996Y79994D1*
X35871D1*
X38378Y72875D1*
X37276D1*
G37*
X36741Y74468D2*
D17*
D3*
X36443Y75424D2*
D3*
G36*
X38999Y75285D2*
Y79994D1*
X40043D1*
Y75401D1*
X40072Y75058D1*
X40149Y74759D1*
X40275Y74504D1*
X40450Y74291D1*
X40658Y74116D1*
X40894Y73991D1*
X41158Y73916D1*
X41449Y73890D1*
X41742Y73916D1*
X42007Y73991D1*
X42246Y74116D1*
X42458Y74291D1*
X42629Y74504D1*
X42752Y74759D1*
X42828Y75058D1*
X42856Y75401D1*
Y79994D1*
X43900D1*
Y75287D1*
X43849Y74755D1*
X43714Y74280D1*
X43496Y73864D1*
X43195Y73505D1*
X42827Y73208D1*
X42413Y72994D1*
X41954Y72863D1*
X41449Y72817D1*
X40953Y72863D1*
X40498Y72994D1*
X40087Y73207D1*
X39718Y73504D1*
X39407Y73863D1*
X39183Y74279D1*
X39047Y74753D1*
X38999Y75285D1*
G37*
Y79994D2*
D17*
D3*
G36*
X46596Y72875D2*
Y79038D1*
X44706D1*
Y79994D1*
X49532D1*
Y79038D1*
X47640D1*
Y72875D1*
X46596D1*
G37*
Y79038D2*
D17*
D3*
G36*
X50425Y72875D2*
Y79994D1*
X51468D1*
Y72875D1*
X50425D1*
G37*
Y79994D2*
D17*
D3*
G36*
X52839Y74785D2*
X52768Y76435D1*
X53812D1*
D1*
X53831Y77319D1*
X53888Y77869D1*
X53930Y78041D1*
X53989Y78198D1*
X54065Y78337D1*
X54248Y78566D1*
X54350Y78663D1*
X54465Y78750D1*
X54594Y78828D1*
X54733Y78890D1*
X54885Y78936D1*
X55050Y78966D1*
X55229Y78979D1*
X55410Y78966D1*
X55578Y78936D1*
X55734Y78890D1*
X55878Y78828D1*
X56002Y78750D1*
X56112Y78663D1*
X56210Y78566D1*
X56389Y78337D1*
X56466Y78198D1*
X56528Y78041D1*
X56574Y77869D1*
X56627Y77319D1*
Y75553D1*
X56574Y75011D1*
X56528Y74834D1*
X56466Y74675D1*
X56389Y74533D1*
X56210Y74304D1*
X56112Y74210D1*
X56002Y74126D1*
X55878Y74052D1*
X55734Y73981D1*
X55578Y73931D1*
X55410Y73901D1*
X55229Y73890D1*
X55050Y73901D1*
X54885Y73931D1*
X54733Y73981D1*
X54465Y74126D1*
X54350Y74210D1*
X54248Y74304D1*
X54065Y74533D1*
X53989Y74675D1*
X53930Y74834D1*
X53888Y75011D1*
X53831Y75553D1*
X53812Y76435D1*
X52768D1*
X52839Y78099D1*
X52882Y78299D1*
X52935Y78479D1*
X52998Y78639D1*
X53215Y79018D1*
X53397Y79243D1*
X53617Y79455D1*
X53874Y79654D1*
X54163Y79825D1*
X54485Y79948D1*
X54841Y80024D1*
X55231Y80053D1*
X55625Y80024D1*
X55985Y79948D1*
X56311Y79824D1*
X56602Y79653D1*
X56855Y79453D1*
X57070Y79240D1*
X57247Y79014D1*
X57467Y78634D1*
X57535Y78475D1*
X57588Y78295D1*
X57628Y78095D1*
X57689Y76435D1*
X57628Y74785D1*
X57588Y74580D1*
X57534Y74398D1*
X57467Y74236D1*
X57247Y73857D1*
X57070Y73632D1*
X56855Y73422D1*
X56602Y73227D1*
X56311Y73055D1*
X55985Y72929D1*
X55625Y72850D1*
X55231Y72817D1*
X54841Y72850D1*
X54485Y72929D1*
X54163Y73055D1*
X53874Y73227D1*
X53617Y73422D1*
X53397Y73632D1*
X53215Y73857D1*
X53071Y74096D1*
X52934Y74404D1*
X52882Y74575D1*
X52839Y74785D1*
G37*
X52768Y76435D2*
D17*
D3*
X53812D2*
D3*
G36*
X59101Y72875D2*
Y79994D1*
X60086D1*
X63208Y74934D1*
X63227D1*
Y79994D1*
X64271D1*
Y72875D1*
X63282D1*
X60164Y77936D1*
X60145D1*
Y72875D1*
X59101D1*
G37*
Y79994D2*
D17*
D3*
G36*
X29805Y66970D2*
Y68962D1*
X28053D1*
Y66970D1*
X27384D1*
Y71530D1*
X28053D1*
Y69575D1*
X29805D1*
Y71530D1*
X30474D1*
Y66970D1*
X29805D1*
G37*
Y68962D2*
D17*
D3*
G36*
X31430Y68193D2*
X31385Y69250D1*
X32053D1*
D1*
X32065Y69816D1*
X32102Y70168D1*
X32129Y70279D1*
X32166Y70379D1*
X32215Y70468D1*
X32332Y70615D1*
X32398Y70677D1*
X32472Y70732D1*
X32554Y70782D1*
X32643Y70822D1*
X32740Y70852D1*
X32846Y70871D1*
X32961Y70879D1*
X33076Y70871D1*
X33184Y70852D1*
X33284Y70822D1*
X33376Y70782D1*
X33455Y70732D1*
X33526Y70677D1*
X33589Y70615D1*
X33703Y70468D1*
X33753Y70379D1*
X33793Y70279D1*
X33822Y70168D1*
X33856Y69816D1*
Y68685D1*
X33822Y68338D1*
X33793Y68224D1*
X33753Y68122D1*
X33703Y68032D1*
X33589Y67885D1*
X33526Y67824D1*
X33455Y67771D1*
X33376Y67723D1*
X33284Y67678D1*
X33184Y67646D1*
X33076Y67626D1*
X32961Y67620D1*
X32846Y67626D1*
X32740Y67646D1*
X32643Y67678D1*
X32472Y67771D1*
X32398Y67824D1*
X32332Y67885D1*
X32215Y68032D1*
X32166Y68122D1*
X32129Y68224D1*
X32102Y68338D1*
X32065Y68685D1*
X32053Y69250D1*
X31385D1*
X31430Y70315D1*
X31457Y70444D1*
X31491Y70559D1*
X31532Y70661D1*
X31671Y70904D1*
X31787Y71048D1*
X31928Y71184D1*
X32093Y71312D1*
X32278Y71421D1*
X32484Y71500D1*
X32712Y71549D1*
X32962Y71567D1*
X33215Y71549D1*
X33445Y71500D1*
X33654Y71421D1*
X33840Y71311D1*
X34002Y71183D1*
X34140Y71046D1*
X34253Y70901D1*
X34394Y70658D1*
X34437Y70556D1*
X34472Y70441D1*
X34497Y70313D1*
X34536Y69250D1*
X34497Y68193D1*
X34472Y68062D1*
X34437Y67945D1*
X34394Y67841D1*
X34253Y67598D1*
X34140Y67455D1*
X34002Y67320D1*
X33840Y67195D1*
X33653Y67085D1*
X33445Y67004D1*
X33214Y66953D1*
X32962Y66932D1*
X32712Y66953D1*
X32484Y67004D1*
X32278Y67085D1*
X32093Y67195D1*
X31928Y67320D1*
X31787Y67455D1*
X31671Y67598D1*
X31578Y67752D1*
X31491Y67949D1*
X31457Y68058D1*
X31430Y68193D1*
G37*
X31385Y69250D2*
D17*
D3*
X32053D2*
D3*
G36*
X36076Y66970D2*
Y70917D1*
X34865D1*
Y71530D1*
X37956D1*
Y70917D1*
X36744D1*
Y66970D1*
X36076D1*
G37*
Y70917D2*
D17*
D3*
G36*
X39679Y67555D2*
X40118Y68074D1*
X40394Y67878D1*
X40695Y67737D1*
X41022Y67651D1*
X41373Y67620D1*
X41751Y67664D1*
X42022Y67785D1*
X42187Y67982D1*
X42246Y68255D1*
X42213Y68485D1*
X42105Y68664D1*
X41925Y68792D1*
X41671Y68869D1*
X41086Y68953D1*
X40818Y69017D1*
X40584Y69111D1*
X40385Y69235D1*
X40219Y69389D1*
X40085Y69572D1*
X39990Y69774D1*
X39932Y69994D1*
X39913Y70234D1*
X39937Y70518D1*
X40009Y70774D1*
X40129Y71000D1*
X40298Y71198D1*
X40503Y71357D1*
X40748Y71472D1*
X41031Y71542D1*
X41354Y71567D1*
X41752Y71531D1*
X42123Y71440D1*
X42468Y71295D1*
X42785Y71096D1*
X42413Y70528D1*
X42158Y70677D1*
X41890Y70785D1*
X41611Y70853D1*
X41318Y70879D1*
X41170Y70869D1*
X41035Y70840D1*
X40913Y70790D1*
X40803Y70720D1*
X40709Y70627D1*
X40640Y70513D1*
X40598Y70379D1*
X40582Y70225D1*
X40591Y70129D1*
X40619Y70037D1*
X40665Y69951D1*
X40730Y69868D1*
X40816Y69793D1*
X40924Y69731D1*
X41054Y69681D1*
X41206Y69643D1*
X41993Y69509D1*
X42243Y69412D1*
X42452Y69279D1*
X42621Y69111D1*
X42750Y68920D1*
X42841Y68715D1*
X42897Y68495D1*
X42915Y68259D1*
X42806Y67686D1*
X42511Y67273D1*
X42031Y67022D1*
X41365Y66932D1*
X40892Y66971D1*
X40453Y67088D1*
X40049Y67282D1*
X39679Y67555D1*
G37*
X40118Y68074D2*
D17*
D3*
G36*
X43657Y68513D2*
Y71530D1*
X44325D1*
Y68587D1*
X44344Y68368D1*
X44394Y68176D1*
X44474Y68013D1*
X44586Y67877D1*
X44720Y67764D1*
X44871Y67684D1*
X45040Y67636D1*
X45226Y67620D1*
X45414Y67636D1*
X45584Y67684D1*
X45737Y67764D1*
X45873Y67877D1*
X45982Y68013D1*
X46061Y68176D1*
X46109Y68368D1*
X46127Y68587D1*
Y71530D1*
X46796D1*
Y68515D1*
X46763Y68174D1*
X46677Y67870D1*
X46538Y67603D1*
X46345Y67373D1*
X46109Y67183D1*
X45844Y67046D1*
X45550Y66962D1*
X45226Y66932D1*
X44908Y66962D1*
X44617Y67046D1*
X44354Y67182D1*
X44117Y67373D1*
X43918Y67602D1*
X43775Y67869D1*
X43688Y68172D1*
X43657Y68513D1*
G37*
Y71530D2*
D17*
D3*
G36*
X47772Y66970D2*
Y71530D1*
X49498D1*
X49761Y71511D1*
X49999Y71455D1*
X50212Y71361D1*
X50399Y71229D1*
X50584Y71041D1*
X50718Y70816D1*
X50803Y70554D1*
X50837Y70257D1*
X50779Y69829D1*
X50618Y69476D1*
X50353Y69198D1*
X49984Y68993D1*
X51006Y66970D1*
X50212D1*
X49298Y68919D1*
X48441D1*
Y69531D1*
D1*
Y70917D1*
X49643Y70908D1*
X49776Y70882D1*
X49889Y70838D1*
X49984Y70776D1*
X50079Y70684D1*
X50147Y70567D1*
X50189Y70425D1*
X50206Y70258D1*
X50194Y70115D1*
X50159Y69984D1*
X50101Y69864D1*
X50020Y69757D1*
X49914Y69660D1*
X49785Y69590D1*
X49632Y69547D1*
X49455Y69531D1*
X48441D1*
Y68919D1*
Y66970D1*
X47772D1*
G37*
Y71530D2*
D17*
D3*
X48441Y69531D2*
D3*
G36*
X51679Y66970D2*
Y71530D1*
X54500D1*
Y70879D1*
X52347D1*
Y69531D1*
X54185D1*
Y68919D1*
X52347D1*
Y66970D1*
X51679D1*
G37*
Y71530D2*
D17*
D3*
G36*
X57371Y66970D2*
X57029Y67990D1*
X56838Y68602D1*
D1*
X55548D1*
X56187Y70597D1*
X56199D1*
X56838Y68602D1*
X57029Y67990D1*
X55354D1*
X55014Y66970D1*
X54306D1*
X55911Y71530D1*
X56471D1*
X58077Y66970D1*
X57371D1*
G37*
X57029Y67990D2*
D17*
D3*
X56838Y68602D2*
D3*
G36*
X60826Y68244D2*
X61535D1*
X61446Y67945D1*
X61324Y67683D1*
X61169Y67458D1*
X60980Y67269D1*
X60760Y67122D1*
X60521Y67017D1*
X60262Y66953D1*
X59984Y66932D1*
X59734Y66953D1*
X59506Y67004D1*
X59299Y67085D1*
X59114Y67195D1*
X58949Y67320D1*
X58809Y67455D1*
X58692Y67598D1*
X58600Y67752D1*
X58512Y67949D1*
X58479Y68058D1*
X58451Y68193D1*
X58406Y69250D1*
X58451Y70313D1*
X58479Y70441D1*
X58513Y70556D1*
X58553Y70658D1*
X58692Y70901D1*
X58809Y71046D1*
X58950Y71183D1*
X59115Y71311D1*
X59300Y71421D1*
X59506Y71500D1*
X59734Y71549D1*
X59984Y71567D1*
X60289Y71540D1*
X60564Y71466D1*
X60810Y71345D1*
X61026Y71177D1*
X61209Y70972D1*
X61355Y70744D1*
X61464Y70492D1*
X61535Y70218D1*
X60825D1*
X60776Y70351D1*
X60710Y70474D1*
X60627Y70586D1*
X60528Y70688D1*
X60409Y70770D1*
X60279Y70828D1*
X60136Y70865D1*
X59982Y70879D1*
X59868Y70871D1*
X59762Y70852D1*
X59664Y70822D1*
X59575Y70782D1*
X59493Y70732D1*
X59419Y70677D1*
X59353Y70615D1*
X59236Y70468D1*
X59188Y70379D1*
X59150Y70279D1*
X59123Y70168D1*
X59087Y69816D1*
Y68685D1*
X59123Y68338D1*
X59150Y68224D1*
X59188Y68122D1*
X59236Y68032D1*
X59353Y67885D1*
X59419Y67824D1*
X59493Y67771D1*
X59665Y67678D1*
X59762Y67646D1*
X59868Y67626D1*
X59982Y67620D1*
X60247Y67659D1*
X60475Y67776D1*
X60668Y67971D1*
X60826Y68244D1*
G37*
X61535D2*
D17*
D3*
G36*
X62118Y66970D2*
Y71530D1*
X64940D1*
Y70879D1*
X62787D1*
Y69575D1*
X64625D1*
Y68962D1*
X62787D1*
Y67620D1*
X64940D1*
Y66970D1*
X62118D1*
G37*
Y71530D2*
D17*
D3*
G36*
X27352Y12117D2*
Y16363D1*
X28791D1*
X29183Y16316D1*
X29522Y16181D1*
X29809Y15958D1*
X30044Y15646D1*
X30112Y15526D1*
X30166Y15402D1*
X30206Y15275D1*
X30233Y15146D1*
X30252Y13659D1*
X30216Y13285D1*
X30188Y13155D1*
X30148Y13040D1*
X30033Y12822D1*
X29934Y12678D1*
X29817Y12548D1*
X29682Y12431D1*
X29347Y12931D1*
D1*
X29174Y12815D1*
X28965Y12745D1*
X28721Y12722D1*
X27975D1*
Y15757D1*
X28721D1*
X28944Y15739D1*
X29141Y15673D1*
X29312Y15560D1*
X29455Y15398D1*
X29513Y15318D1*
X29559Y15227D1*
X29593Y15124D1*
X29616Y15010D1*
Y13440D1*
X29597Y13340D1*
X29569Y13248D1*
X29531Y13166D1*
X29483Y13093D1*
X29347Y12931D1*
X29682Y12431D1*
X29530Y12327D1*
X29362Y12235D1*
X29176Y12169D1*
X28971Y12130D1*
X27352Y12117D1*
G37*
Y16363D2*
D17*
D3*
X27975Y12722D2*
D3*
G36*
X31012Y13255D2*
X30969Y14240D1*
X31592D1*
D1*
X31603Y14767D1*
X31637Y15095D1*
X31662Y15198D1*
X31697Y15291D1*
X31743Y15374D1*
X31852Y15511D1*
X31913Y15568D1*
X31982Y15620D1*
X32058Y15667D1*
X32141Y15704D1*
X32232Y15732D1*
X32331Y15750D1*
X32437Y15757D1*
X32545Y15750D1*
X32645Y15732D1*
X32738Y15704D1*
X32824Y15667D1*
X32898Y15620D1*
X32964Y15568D1*
X33022Y15511D1*
X33129Y15374D1*
X33175Y15291D1*
X33212Y15198D1*
X33239Y15095D1*
X33271Y14767D1*
Y13714D1*
X33239Y13391D1*
X33212Y13285D1*
X33175Y13190D1*
X33129Y13105D1*
X33022Y12969D1*
X32964Y12913D1*
X32898Y12863D1*
X32824Y12819D1*
X32738Y12776D1*
X32645Y12746D1*
X32545Y12728D1*
X32437Y12722D1*
X32331Y12728D1*
X32232Y12746D1*
X32141Y12776D1*
X31982Y12863D1*
X31913Y12913D1*
X31852Y12969D1*
X31743Y13105D1*
X31697Y13190D1*
X31662Y13285D1*
X31637Y13391D1*
X31603Y13714D1*
X31592Y14240D1*
X30969D1*
X31012Y15232D1*
X31037Y15351D1*
X31069Y15459D1*
X31106Y15554D1*
X31236Y15780D1*
X31344Y15915D1*
X31475Y16041D1*
X31629Y16160D1*
X31801Y16262D1*
X31994Y16335D1*
X32206Y16381D1*
X32438Y16398D1*
X32673Y16381D1*
X32888Y16335D1*
X33082Y16261D1*
X33256Y16159D1*
X33407Y16040D1*
X33535Y15913D1*
X33641Y15778D1*
X33772Y15552D1*
X33812Y15456D1*
X33844Y15349D1*
X33868Y15230D1*
X33904Y14240D1*
X33868Y13255D1*
X33844Y13134D1*
X33812Y13025D1*
X33772Y12928D1*
X33641Y12702D1*
X33535Y12568D1*
X33407Y12443D1*
X33256Y12327D1*
X33082Y12224D1*
X32888Y12149D1*
X32673Y12101D1*
X32438Y12082D1*
X32206Y12101D1*
X31994Y12149D1*
X31801Y12224D1*
X31629Y12327D1*
X31475Y12443D1*
X31344Y12568D1*
X31236Y12702D1*
X31150Y12845D1*
X31068Y13028D1*
X31037Y13130D1*
X31012Y13255D1*
G37*
X30969Y14240D2*
D17*
D3*
X31592D2*
D3*
G36*
X36177Y12117D2*
Y16363D1*
X36763D1*
X38626Y13344D1*
X38637D1*
Y16363D1*
X39260D1*
Y12117D1*
X38670D1*
X36810Y15135D1*
X36799D1*
Y12117D1*
X36177D1*
G37*
Y16363D2*
D17*
D3*
G36*
X40159Y13255D2*
X40117Y14240D1*
X40739D1*
D1*
X40751Y14767D1*
X40785Y15095D1*
X40810Y15198D1*
X40845Y15291D1*
X40890Y15374D1*
X40999Y15511D1*
X41060Y15568D1*
X41129Y15620D1*
X41206Y15667D1*
X41289Y15704D1*
X41379Y15732D1*
X41478Y15750D1*
X41584Y15757D1*
X41692Y15750D1*
X41793Y15732D1*
X41886Y15704D1*
X41971Y15667D1*
X42045Y15620D1*
X42111Y15568D1*
X42169Y15511D1*
X42276Y15374D1*
X42322Y15291D1*
X42359Y15198D1*
X42387Y15095D1*
X42419Y14767D1*
Y13714D1*
X42387Y13391D1*
X42359Y13285D1*
X42322Y13190D1*
X42276Y13105D1*
X42169Y12969D1*
X42111Y12913D1*
X42045Y12863D1*
X41971Y12819D1*
X41886Y12776D1*
X41793Y12746D1*
X41692Y12728D1*
X41584Y12722D1*
X41478Y12728D1*
X41379Y12746D1*
X41289Y12776D1*
X41129Y12863D1*
X41060Y12913D1*
X40999Y12969D1*
X40890Y13105D1*
X40845Y13190D1*
X40810Y13285D1*
X40785Y13391D1*
X40751Y13714D1*
X40739Y14240D1*
X40117D1*
X40159Y15232D1*
X40185Y15351D1*
X40216Y15459D1*
X40254Y15554D1*
X40383Y15780D1*
X40492Y15915D1*
X40623Y16041D1*
X40777Y16160D1*
X40949Y16262D1*
X41141Y16335D1*
X41353Y16381D1*
X41586Y16398D1*
X41821Y16381D1*
X42035Y16335D1*
X42230Y16261D1*
X42403Y16159D1*
X42554Y16040D1*
X42682Y15913D1*
X42788Y15778D1*
X42920Y15552D1*
X42960Y15456D1*
X42991Y15349D1*
X43015Y15230D1*
X43052Y14240D1*
X43015Y13255D1*
X42991Y13134D1*
X42959Y13025D1*
X42919Y12928D1*
X42788Y12702D1*
X42682Y12568D1*
X42554Y12443D1*
X42403Y12327D1*
X42230Y12224D1*
X42035Y12149D1*
X41821Y12101D1*
X41586Y12082D1*
X41353Y12101D1*
X41141Y12149D1*
X40949Y12224D1*
X40777Y12327D1*
X40623Y12443D1*
X40492Y12568D1*
X40383Y12702D1*
X40297Y12845D1*
X40215Y13028D1*
X40184Y13130D1*
X40159Y13255D1*
G37*
X40117Y14240D2*
D17*
D3*
X40739D2*
D3*
G36*
X44485Y12117D2*
Y15792D1*
X43358D1*
Y16363D1*
X46236D1*
Y15792D1*
X45108D1*
Y12117D1*
X44485D1*
G37*
Y15792D2*
D17*
D3*
G36*
X48897Y12117D2*
Y15792D1*
X47770D1*
Y16363D1*
X50648D1*
Y15792D1*
X49520D1*
Y12117D1*
X48897D1*
G37*
Y15792D2*
D17*
D3*
G36*
X50975Y13255D2*
X50933Y14240D1*
X51555D1*
D1*
X51567Y14767D1*
X51601Y15095D1*
X51626Y15198D1*
X51661Y15291D1*
X51706Y15374D1*
X51815Y15511D1*
X51876Y15568D1*
X51945Y15620D1*
X52022Y15667D1*
X52105Y15704D1*
X52195Y15732D1*
X52294Y15750D1*
X52400Y15757D1*
X52508Y15750D1*
X52609Y15732D1*
X52702Y15704D1*
X52787Y15667D1*
X52861Y15620D1*
X52927Y15568D1*
X52986Y15511D1*
X53092Y15374D1*
X53138Y15291D1*
X53175Y15198D1*
X53203Y15095D1*
X53235Y14767D1*
Y13714D1*
X53203Y13391D1*
X53175Y13285D1*
X53138Y13190D1*
X53092Y13105D1*
X52986Y12969D1*
X52927Y12913D1*
X52861Y12863D1*
X52787Y12819D1*
X52702Y12776D1*
X52609Y12746D1*
X52508Y12728D1*
X52400Y12722D1*
X52294Y12728D1*
X52195Y12746D1*
X52105Y12776D1*
X51945Y12863D1*
X51876Y12913D1*
X51815Y12969D1*
X51706Y13105D1*
X51661Y13190D1*
X51626Y13285D1*
X51601Y13391D1*
X51567Y13714D1*
X51555Y14240D1*
X50933D1*
X50975Y15232D1*
X51001Y15351D1*
X51032Y15459D1*
X51070Y15554D1*
X51199Y15780D1*
X51308Y15915D1*
X51439Y16041D1*
X51593Y16160D1*
X51765Y16262D1*
X51957Y16335D1*
X52169Y16381D1*
X52402Y16398D1*
X52637Y16381D1*
X52851Y16335D1*
X53046Y16261D1*
X53219Y16159D1*
X53370Y16040D1*
X53499Y15913D1*
X53604Y15778D1*
X53736Y15552D1*
X53776Y15456D1*
X53807Y15349D1*
X53831Y15230D1*
X53868Y14240D1*
X53831Y13255D1*
X53807Y13134D1*
X53775Y13025D1*
X53735Y12928D1*
X53604Y12702D1*
X53498Y12568D1*
X53370Y12443D1*
X53219Y12327D1*
X53046Y12224D1*
X52851Y12149D1*
X52637Y12101D1*
X52402Y12082D1*
X52169Y12101D1*
X51957Y12149D1*
X51765Y12224D1*
X51593Y12327D1*
X51439Y12443D1*
X51308Y12568D1*
X51199Y12702D1*
X51113Y12845D1*
X51031Y13028D1*
X51000Y13130D1*
X50975Y13255D1*
G37*
X50933Y14240D2*
D17*
D3*
X51555D2*
D3*
G36*
X54634Y13554D2*
Y16363D1*
X55257D1*
Y13623D1*
X55274Y13419D1*
X55320Y13240D1*
X55396Y13088D1*
X55500Y12961D1*
X55624Y12857D1*
X55765Y12782D1*
X55922Y12737D1*
X56096Y12722D1*
X56270Y12737D1*
X56428Y12782D1*
X56571Y12857D1*
X56698Y12961D1*
X56799Y13088D1*
X56873Y13240D1*
X56918Y13419D1*
X56935Y13623D1*
Y16363D1*
X57557D1*
Y13555D1*
X57527Y13238D1*
X57447Y12955D1*
X57317Y12706D1*
X57137Y12493D1*
X56917Y12315D1*
X56671Y12187D1*
X56397Y12110D1*
X56096Y12082D1*
X55800Y12110D1*
X55529Y12187D1*
X55283Y12315D1*
X55063Y12492D1*
X54878Y12706D1*
X54744Y12954D1*
X54663Y13236D1*
X54634Y13554D1*
G37*
Y16363D2*
D17*
D3*
G36*
X60580Y13303D2*
X61241D1*
X61158Y13025D1*
X61044Y12781D1*
X60899Y12571D1*
X60724Y12396D1*
X60519Y12258D1*
X60296Y12160D1*
X60055Y12101D1*
X59796Y12082D1*
X59564Y12101D1*
X59351Y12149D1*
X59159Y12224D1*
X58987Y12327D1*
X58833Y12443D1*
X58702Y12568D1*
X58593Y12702D1*
X58507Y12845D1*
X58426Y13028D1*
X58395Y13130D1*
X58369Y13255D1*
X58327Y14240D1*
X58369Y15230D1*
X58395Y15349D1*
X58426Y15456D1*
X58464Y15552D1*
X58593Y15778D1*
X58702Y15913D1*
X58833Y16040D1*
X58987Y16159D1*
X59159Y16261D1*
X59352Y16335D1*
X59564Y16381D1*
X59797Y16398D1*
X60080Y16373D1*
X60337Y16304D1*
X60565Y16191D1*
X60767Y16034D1*
X60937Y15843D1*
X61073Y15631D1*
X61174Y15397D1*
X61241Y15142D1*
X60580D1*
X60534Y15265D1*
X60472Y15379D1*
X60395Y15484D1*
X60303Y15579D1*
X60193Y15655D1*
X60071Y15710D1*
X59938Y15744D1*
X59794Y15757D1*
X59688Y15750D1*
X59589Y15732D1*
X59499Y15704D1*
X59416Y15667D1*
X59339Y15620D1*
X59270Y15568D1*
X59209Y15511D1*
X59100Y15374D1*
X59055Y15291D1*
X59020Y15198D1*
X58995Y15095D1*
X58961Y14767D1*
Y13714D1*
X58995Y13391D1*
X59020Y13285D1*
X59055Y13190D1*
X59100Y13105D1*
X59209Y12969D1*
X59270Y12913D1*
X59339Y12863D1*
X59499Y12776D1*
X59590Y12746D1*
X59688Y12728D1*
X59795Y12722D1*
X60041Y12759D1*
X60254Y12867D1*
X60434Y13049D1*
X60580Y13303D1*
G37*
X61241D2*
D17*
D3*
G36*
X64038Y12117D2*
Y13972D1*
X62406D1*
Y12117D1*
X61784D1*
Y16363D1*
X62406D1*
Y14542D1*
X64038D1*
Y16363D1*
X64660D1*
Y12117D1*
X64038D1*
G37*
Y13972D2*
D17*
D3*
X27316Y6149D2*
D37*
Y5646D1*
X27603D1*
X28068Y6149D2*
X27757D1*
Y5646D1*
X28068D1*
X27757Y5909D2*
X27949D1*
X28222Y6149D2*
Y5646D1*
X28390D1*
X28462Y5671D1*
X28510Y5718D1*
X28534Y5766D1*
X28557Y5838D1*
Y5958D1*
X28534Y6029D1*
X28510Y6077D1*
X28462Y6125D1*
X28390Y6149D1*
X28222D1*
X28712Y6053D2*
X28760Y6077D1*
X28832Y6148D1*
Y5646D1*
X27386Y5050D2*
Y4548D1*
X27673D1*
X28138Y5050D2*
X27827D1*
Y4548D1*
X28138D1*
X27827Y4811D2*
X28019D1*
X28292Y5050D2*
Y4548D1*
X28460D1*
X28532Y4572D1*
X28580Y4620D1*
X28603Y4668D1*
X28627Y4739D1*
Y4859D1*
X28603Y4931D1*
X28580Y4978D1*
X28532Y5026D1*
X28460Y5050D1*
X28292D1*
X28806Y4930D2*
Y4954D1*
X28830Y5002D1*
X28853Y5026D1*
X28902Y5050D1*
X28997D1*
X29045Y5026D1*
X29068Y5002D1*
X29093Y4954D1*
Y4906D1*
X29068Y4858D1*
X29021Y4787D1*
X28782Y4548D1*
X29117D1*
X18418Y88039D2*
D39*
X18553Y88107D1*
X18754Y88306D1*
Y86901D1*
X22030Y87972D2*
Y88039D1*
X22096Y88173D1*
X22163Y88240D1*
X22297Y88306D1*
X22565D1*
X22698Y88240D1*
X22765Y88173D1*
X22833Y88039D1*
Y87905D1*
X22765Y87771D1*
X22632Y87571D1*
X21962Y86901D1*
X22899D1*
X26033Y88306D2*
X26768D1*
X26368Y87771D1*
X26569D1*
X26702Y87704D1*
X26768Y87638D1*
X26836Y87437D1*
Y87303D1*
X26768Y87102D1*
X26635Y86968D1*
X26434Y86901D1*
X26233D1*
X26033Y86968D1*
X25967Y87036D1*
X25899Y87169D1*
X30506Y86901D2*
Y88306D1*
X29836Y87370D1*
X30840D1*
X34576Y88306D2*
X33907D1*
X33841Y87704D1*
X33907Y87771D1*
X34108Y87839D1*
X34308D1*
X34509Y87771D1*
X34644Y87638D1*
X34710Y87437D1*
Y87303D1*
X34644Y87102D1*
X34509Y86968D1*
X34308Y86901D1*
X34108D1*
X33907Y86968D1*
X33841Y87036D1*
X33773Y87169D1*
X86030Y13352D2*
D41*
X86106Y13275D1*
X86221Y13199D1*
X86374Y13122D1*
X86565Y13084D1*
X86718D1*
X86909Y13122D1*
X87062Y13199D1*
X87177Y13275D1*
X87253Y13352D1*
X86622Y14059D2*
X86545Y13982D1*
X86507Y13905D1*
Y13791D1*
X86545Y13714D1*
X86622Y13638D1*
X86737Y13599D1*
X86813D1*
X86928Y13638D1*
X87004Y13714D1*
X87043Y13791D1*
Y13905D1*
X87004Y13982D1*
X86928Y14059D1*
X86030Y14306D2*
X86106Y14383D1*
X86221Y14459D1*
X86374Y14536D1*
X86565Y14574D1*
X86718D1*
X86909Y14536D1*
X87062Y14459D1*
X87177Y14383D1*
X87253Y14306D1*
X86507Y15598D2*
X87043D1*
X86660D2*
X86545Y15713D1*
X86507Y15790D1*
Y15904D1*
X86545Y15981D1*
X86660Y16019D1*
X87043D1*
X86660D2*
X86545Y16134D1*
X86507Y16211D1*
Y16325D1*
X86545Y16402D1*
X86660Y16441D1*
X87043D1*
X86507Y17147D2*
X87043D1*
X86622D2*
X86545Y17071D1*
X86507Y16994D1*
Y16880D1*
X86545Y16803D1*
X86622Y16727D1*
X86737Y16688D1*
X86813D1*
X86928Y16727D1*
X87004Y16803D1*
X87043Y16880D1*
Y16994D1*
X87004Y17071D1*
X86928Y17147D1*
X86239Y17394D2*
X87043D1*
X86507Y17777D2*
X86890Y17394D1*
X86737Y17547D2*
X87043Y17815D1*
X86737Y18062D2*
Y18521D1*
X86660D1*
X86583Y18483D1*
X86545Y18445D1*
X86507Y18368D1*
Y18253D1*
X86545Y18177D1*
X86622Y18100D1*
X86737Y18062D1*
X86813D1*
X86928Y18100D1*
X87004Y18177D1*
X87043Y18253D1*
Y18368D1*
X87004Y18445D1*
X86928Y18521D1*
X86507Y18768D2*
X87043D1*
X86737D2*
X86622Y18807D1*
X86545Y18883D1*
X86507Y18960D1*
Y19075D1*
X86239Y19437D2*
X86890D1*
X87004Y19475D1*
X87043Y19552D1*
Y19628D1*
X86507Y19322D2*
Y19590D1*
Y19875D2*
X86890D1*
X87004Y19913D1*
X87043Y19990D1*
Y20105D1*
X87004Y20181D1*
X86890Y20296D1*
X86507D2*
X87043D1*
X86507Y20543D2*
X87043D1*
X86660D2*
X86545Y20658D1*
X86507Y20735D1*
Y20849D1*
X86545Y20926D1*
X86660Y20964D1*
X87043D1*
X86660D2*
X86545Y21079D1*
X86507Y21156D1*
Y21270D1*
X86545Y21347D1*
X86660Y21386D1*
X87043D1*
X86966Y21671D2*
X87005Y21633D1*
X87043Y21671D1*
X87005Y21710D1*
X86966Y21671D1*
X86622Y22417D2*
X86545Y22340D1*
X86507Y22263D1*
Y22149D1*
X86545Y22072D1*
X86622Y21996D1*
X86737Y21957D1*
X86813D1*
X86928Y21996D1*
X87004Y22072D1*
X87043Y22149D1*
Y22263D1*
X87004Y22340D1*
X86928Y22417D1*
X86507Y22855D2*
X86545Y22779D1*
X86622Y22702D1*
X86737Y22664D1*
X86813D1*
X86928Y22702D1*
X87004Y22779D1*
X87043Y22855D1*
Y22970D1*
X87004Y23047D1*
X86928Y23123D1*
X86813Y23162D1*
X86737D1*
X86622Y23123D1*
X86545Y23047D1*
X86507Y22970D1*
Y22855D1*
Y23409D2*
X87043D1*
X86660D2*
X86545Y23524D1*
X86507Y23600D1*
Y23715D1*
X86545Y23791D1*
X86660Y23829D1*
X87043D1*
X86660D2*
X86545Y23944D1*
X86507Y24021D1*
Y24135D1*
X86545Y24212D1*
X86660Y24251D1*
X87043D1*
X86431Y25315D2*
X86393D1*
X86316Y25353D1*
X86278Y25391D1*
X86240Y25468D1*
Y25621D1*
X86278Y25697D1*
X86316Y25735D1*
X86393Y25774D1*
X86469D1*
X86546Y25735D1*
X86660Y25659D1*
X87043Y25276D1*
Y25812D1*
X86240Y26289D2*
X86278Y26174D1*
X86393Y26097D1*
X86584Y26059D1*
X86699D1*
X86890Y26097D1*
X87005Y26174D1*
X87043Y26289D1*
Y26365D1*
X87005Y26480D1*
X86890Y26556D1*
X86699Y26595D1*
X86584D1*
X86393Y26556D1*
X86278Y26480D1*
X86240Y26365D1*
Y26289D1*
X86393Y26556D2*
X86890Y26097D1*
X86393Y26842D2*
X86354Y26919D1*
X86240Y27034D1*
X87043D1*
X86240Y27740D2*
Y27358D1*
X86584Y27320D1*
X86546Y27358D1*
X86507Y27473D1*
Y27587D1*
X86546Y27702D1*
X86622Y27779D1*
X86737Y27817D1*
X86813D1*
X86928Y27779D1*
X87005Y27702D1*
X87043Y27587D1*
Y27473D1*
X87005Y27358D1*
X86966Y27320D1*
X86890Y27281D1*
X86622Y29301D2*
X86545Y29224D1*
X86507Y29147D1*
Y29033D1*
X86545Y28956D1*
X86622Y28880D1*
X86737Y28841D1*
X86813D1*
X86928Y28880D1*
X87004Y28956D1*
X87043Y29033D1*
Y29147D1*
X87004Y29224D1*
X86928Y29301D1*
X86507Y29548D2*
X87043D1*
X86737D2*
X86622Y29587D1*
X86545Y29663D1*
X86507Y29740D1*
Y29855D1*
X86737Y30102D2*
Y30561D1*
X86660D1*
X86583Y30523D1*
X86545Y30485D1*
X86507Y30408D1*
Y30293D1*
X86545Y30217D1*
X86622Y30140D1*
X86737Y30102D1*
X86813D1*
X86928Y30140D1*
X87004Y30217D1*
X87043Y30293D1*
Y30408D1*
X87004Y30485D1*
X86928Y30561D1*
X86507Y31267D2*
X87043D1*
X86622D2*
X86545Y31191D1*
X86507Y31114D1*
Y31000D1*
X86545Y30923D1*
X86622Y30847D1*
X86737Y30808D1*
X86813D1*
X86928Y30847D1*
X87004Y30923D1*
X87043Y31000D1*
Y31114D1*
X87004Y31191D1*
X86928Y31267D1*
X86239Y31629D2*
X86890D1*
X87004Y31667D1*
X87043Y31744D1*
Y31820D1*
X86507Y31514D2*
Y31782D1*
X86737Y32067D2*
Y32526D1*
X86660D1*
X86583Y32488D1*
X86545Y32450D1*
X86507Y32373D1*
Y32258D1*
X86545Y32182D1*
X86622Y32105D1*
X86737Y32067D1*
X86813D1*
X86928Y32105D1*
X87004Y32182D1*
X87043Y32258D1*
Y32373D1*
X87004Y32450D1*
X86928Y32526D1*
X86239Y33232D2*
X87043D1*
X86622D2*
X86545Y33156D1*
X86507Y33079D1*
Y32964D1*
X86545Y32888D1*
X86622Y32811D1*
X86737Y32773D1*
X86813D1*
X86928Y32811D1*
X87004Y32888D1*
X87043Y32964D1*
Y33079D1*
X87004Y33156D1*
X86928Y33232D1*
X86239Y34257D2*
X87043D1*
X86622D2*
X86545Y34333D1*
X86507Y34410D1*
Y34525D1*
X86545Y34601D1*
X86622Y34677D1*
X86737Y34716D1*
X86813D1*
X86928Y34677D1*
X87004Y34601D1*
X87043Y34525D1*
Y34410D1*
X87004Y34333D1*
X86928Y34257D1*
X86507Y35001D2*
X87043Y35230D1*
X87196Y35154D1*
X87273Y35078D1*
X87311Y35001D1*
Y34963D1*
X86507Y35460D2*
X87043Y35230D1*
Y37097D2*
X86239D1*
X87043Y36791D1*
X86239Y36485D1*
X87043D1*
X86507Y37535D2*
X86545Y37459D1*
X86622Y37382D1*
X86737Y37344D1*
X86813D1*
X86928Y37382D1*
X87004Y37459D1*
X87043Y37535D1*
Y37650D1*
X87004Y37727D1*
X86928Y37803D1*
X86813Y37842D1*
X86737D1*
X86622Y37803D1*
X86545Y37727D1*
X86507Y37650D1*
Y37535D1*
Y38089D2*
X87043D1*
X86737D2*
X86622Y38128D1*
X86545Y38204D1*
X86507Y38281D1*
Y38396D1*
X86239Y38643D2*
X86277Y38681D1*
X86239Y38720D1*
X86200Y38681D1*
X86239Y38643D1*
X86507Y38681D2*
X87043D1*
X86239Y39082D2*
X86890D1*
X87004Y39120D1*
X87043Y39197D1*
Y39273D1*
X86507Y38967D2*
Y39235D1*
Y39520D2*
Y39941D1*
X87043Y39520D1*
Y39941D1*
X86239Y40965D2*
X87043Y41157D1*
X86239Y41348D1*
X87043Y41539D1*
X86239Y41731D1*
X86507Y42437D2*
X87043D1*
X86622D2*
X86545Y42361D1*
X86507Y42284D1*
Y42170D1*
X86545Y42093D1*
X86622Y42017D1*
X86737Y41978D1*
X86813D1*
X86928Y42017D1*
X87004Y42093D1*
X87043Y42170D1*
Y42284D1*
X87004Y42361D1*
X86928Y42437D1*
X86239Y42684D2*
X87043D1*
X86239Y43046D2*
X86890D1*
X87004Y43084D1*
X87043Y43161D1*
Y43237D1*
X86507Y42931D2*
Y43199D1*
X86737Y43484D2*
Y43943D1*
X86660D1*
X86583Y43905D1*
X86545Y43867D1*
X86507Y43790D1*
Y43675D1*
X86545Y43599D1*
X86622Y43522D1*
X86737Y43484D1*
X86813D1*
X86928Y43522D1*
X87004Y43599D1*
X87043Y43675D1*
Y43790D1*
X87004Y43867D1*
X86928Y43943D1*
X86507Y44190D2*
X87043D1*
X86737D2*
X86622Y44229D1*
X86545Y44305D1*
X86507Y44382D1*
Y44497D1*
Y47855D2*
X87311D1*
X86622D2*
X86546Y47931D1*
X86507Y48008D1*
Y48122D1*
X86546Y48199D1*
X86622Y48275D1*
X86737Y48314D1*
X86814D1*
X86928Y48275D1*
X87005Y48199D1*
X87043Y48122D1*
Y48008D1*
X87005Y47931D1*
X86928Y47855D1*
X86507Y48561D2*
X87043D1*
X86737D2*
X86622Y48600D1*
X86545Y48676D1*
X86507Y48753D1*
Y48868D1*
Y49306D2*
X86545Y49230D1*
X86622Y49153D1*
X86737Y49115D1*
X86813D1*
X86928Y49153D1*
X87004Y49230D1*
X87043Y49306D1*
Y49421D1*
X87004Y49498D1*
X86928Y49574D1*
X86813Y49613D1*
X86737D1*
X86622Y49574D1*
X86545Y49498D1*
X86507Y49421D1*
Y49306D1*
X86239Y49975D2*
X86890D1*
X87004Y50013D1*
X87043Y50090D1*
Y50166D1*
X86507Y49860D2*
Y50128D1*
Y50604D2*
X86545Y50528D1*
X86622Y50451D1*
X86737Y50413D1*
X86813D1*
X86928Y50451D1*
X87004Y50528D1*
X87043Y50604D1*
Y50719D1*
X87004Y50796D1*
X86928Y50872D1*
X86813Y50911D1*
X86737D1*
X86622Y50872D1*
X86545Y50796D1*
X86507Y50719D1*
Y50604D1*
X86239Y51273D2*
X86890D1*
X87004Y51311D1*
X87043Y51388D1*
Y51464D1*
X86507Y51158D2*
Y51426D1*
Y51750D2*
X87043Y51979D1*
X87196Y51903D1*
X87273Y51826D1*
X87311Y51750D1*
Y51711D1*
X86507Y52209D2*
X87043Y51979D1*
X86507Y52456D2*
X87311D1*
X86622D2*
X86546Y52533D1*
X86507Y52609D1*
Y52724D1*
X86546Y52801D1*
X86622Y52877D1*
X86737Y52916D1*
X86814D1*
X86928Y52877D1*
X87005Y52801D1*
X87043Y52724D1*
Y52609D1*
X87005Y52533D1*
X86928Y52456D1*
X86737Y53163D2*
Y53622D1*
X86660D1*
X86583Y53584D1*
X86545Y53546D1*
X86507Y53469D1*
Y53354D1*
X86545Y53278D1*
X86622Y53201D1*
X86737Y53163D1*
X86813D1*
X86928Y53201D1*
X87004Y53278D1*
X87043Y53354D1*
Y53469D1*
X87004Y53546D1*
X86928Y53622D1*
X87005Y53946D2*
X87043Y53907D1*
X87005Y53869D1*
X86966Y53907D1*
X87005Y53946D1*
X87081D1*
X87158Y53907D1*
X87196Y53869D1*
X86507Y54970D2*
X87043D1*
X86660D2*
X86545Y55085D1*
X86507Y55162D1*
Y55276D1*
X86545Y55353D1*
X86660Y55391D1*
X87043D1*
X86507Y55829D2*
X86545Y55753D1*
X86622Y55676D1*
X86737Y55638D1*
X86813D1*
X86928Y55676D1*
X87004Y55753D1*
X87043Y55829D1*
Y55944D1*
X87004Y56021D1*
X86928Y56097D1*
X86813Y56136D1*
X86737D1*
X86622Y56097D1*
X86545Y56021D1*
X86507Y55944D1*
Y55829D1*
X86239Y56498D2*
X86890D1*
X87004Y56536D1*
X87043Y56613D1*
Y56689D1*
X86507Y56383D2*
Y56651D1*
X86239Y58020D2*
Y57944D1*
X86277Y57867D1*
X86392Y57829D1*
X87043D1*
X86507Y57714D2*
Y57982D1*
Y58458D2*
X86545Y58382D1*
X86622Y58305D1*
X86737Y58267D1*
X86813D1*
X86928Y58305D1*
X87004Y58382D1*
X87043Y58458D1*
Y58573D1*
X87004Y58650D1*
X86928Y58726D1*
X86813Y58765D1*
X86737D1*
X86622Y58726D1*
X86545Y58650D1*
X86507Y58573D1*
Y58458D1*
Y59012D2*
X87043D1*
X86737D2*
X86622Y59051D1*
X86545Y59127D1*
X86507Y59204D1*
Y59319D1*
Y60343D2*
X87043D1*
X86737D2*
X86622Y60382D1*
X86545Y60458D1*
X86507Y60535D1*
Y60650D1*
X86737Y60897D2*
Y61356D1*
X86660D1*
X86583Y61318D1*
X86545Y61280D1*
X86507Y61203D1*
Y61088D1*
X86545Y61012D1*
X86622Y60935D1*
X86737Y60897D1*
X86813D1*
X86928Y60935D1*
X87004Y61012D1*
X87043Y61088D1*
Y61203D1*
X87004Y61280D1*
X86928Y61356D1*
X86239Y61718D2*
X86890D1*
X87004Y61756D1*
X87043Y61833D1*
Y61909D1*
X86507Y61603D2*
Y61871D1*
Y62615D2*
X87043D1*
X86622D2*
X86545Y62539D1*
X86507Y62462D1*
Y62348D1*
X86545Y62271D1*
X86622Y62195D1*
X86737Y62156D1*
X86813D1*
X86928Y62195D1*
X87004Y62271D1*
X87043Y62348D1*
Y62462D1*
X87004Y62539D1*
X86928Y62615D1*
X86239Y62862D2*
X86277Y62900D1*
X86239Y62939D1*
X86200Y62900D1*
X86239Y62862D1*
X86507Y62900D2*
X87043D1*
X86239Y63186D2*
X87043D1*
X87005Y63510D2*
X87043Y63471D1*
X87005Y63433D1*
X86966Y63471D1*
X87005Y63510D1*
X87081D1*
X87158Y63471D1*
X87196Y63433D1*
X86239Y64535D2*
X87043D1*
X86507Y64918D2*
X86890Y64535D1*
X86737Y64688D2*
X87043Y64956D1*
X86737Y65203D2*
Y65662D1*
X86660D1*
X86583Y65624D1*
X86545Y65586D1*
X86507Y65509D1*
Y65394D1*
X86545Y65318D1*
X86622Y65241D1*
X86737Y65203D1*
X86813D1*
X86928Y65241D1*
X87004Y65318D1*
X87043Y65394D1*
Y65509D1*
X87004Y65586D1*
X86928Y65662D1*
X86737Y65909D2*
Y66368D1*
X86660D1*
X86583Y66330D1*
X86545Y66292D1*
X86507Y66215D1*
Y66100D1*
X86545Y66024D1*
X86622Y65947D1*
X86737Y65909D1*
X86813D1*
X86928Y65947D1*
X87004Y66024D1*
X87043Y66100D1*
Y66215D1*
X87004Y66292D1*
X86928Y66368D1*
X86507Y66615D2*
X87311D1*
X86622D2*
X86546Y66692D1*
X86507Y66768D1*
Y66883D1*
X86546Y66960D1*
X86622Y67036D1*
X86737Y67074D1*
X86814D1*
X86928Y67036D1*
X87005Y66960D1*
X87043Y66883D1*
Y66768D1*
X87005Y66692D1*
X86928Y66615D1*
X86507Y68558D2*
X87043D1*
X86622D2*
X86545Y68482D1*
X86507Y68405D1*
Y68291D1*
X86545Y68214D1*
X86622Y68138D1*
X86737Y68099D1*
X86813D1*
X86928Y68138D1*
X87004Y68214D1*
X87043Y68291D1*
Y68405D1*
X87004Y68482D1*
X86928Y68558D1*
X86507Y68805D2*
X87043Y68958D1*
X86507Y69111D1*
X87043Y69264D1*
X86507Y69417D1*
Y70123D2*
X87043D1*
X86622D2*
X86545Y70047D1*
X86507Y69970D1*
Y69856D1*
X86545Y69779D1*
X86622Y69703D1*
X86737Y69664D1*
X86813D1*
X86928Y69703D1*
X87004Y69779D1*
X87043Y69856D1*
Y69970D1*
X87004Y70047D1*
X86928Y70123D1*
X86507Y70409D2*
X87043Y70638D1*
X87196Y70562D1*
X87273Y70485D1*
X87311Y70409D1*
Y70370D1*
X86507Y70868D2*
X87043Y70638D1*
X86239Y72199D2*
Y72123D1*
X86277Y72046D1*
X86392Y72008D1*
X87043D1*
X86507Y71893D2*
Y72161D1*
Y72446D2*
X87043D1*
X86737D2*
X86622Y72484D1*
X86545Y72561D1*
X86507Y72637D1*
Y72752D1*
Y73190D2*
X86545Y73114D1*
X86622Y73037D1*
X86737Y72999D1*
X86813D1*
X86928Y73037D1*
X87004Y73114D1*
X87043Y73190D1*
Y73305D1*
X87004Y73382D1*
X86928Y73458D1*
X86813Y73497D1*
X86737D1*
X86622Y73458D1*
X86545Y73382D1*
X86507Y73305D1*
Y73190D1*
Y73744D2*
X87043D1*
X86660D2*
X86545Y73859D1*
X86507Y73936D1*
Y74050D1*
X86545Y74127D1*
X86660Y74165D1*
X87043D1*
X86660D2*
X86545Y74280D1*
X86507Y74357D1*
Y74471D1*
X86545Y74548D1*
X86660Y74587D1*
X87043D1*
X86622Y76072D2*
X86545Y75995D1*
X86507Y75918D1*
Y75804D1*
X86545Y75727D1*
X86622Y75651D1*
X86737Y75612D1*
X86813D1*
X86928Y75651D1*
X87004Y75727D1*
X87043Y75804D1*
Y75918D1*
X87004Y75995D1*
X86928Y76072D1*
X86239Y76319D2*
X87043D1*
X86660D2*
X86545Y76434D1*
X86507Y76511D1*
Y76625D1*
X86545Y76702D1*
X86660Y76740D1*
X87043D1*
X86239Y76987D2*
X86277Y77025D1*
X86239Y77064D1*
X86200Y77025D1*
X86239Y76987D1*
X86507Y77025D2*
X87043D1*
X86239Y77311D2*
X87043D1*
X86239Y78017D2*
X87043D1*
X86622D2*
X86545Y77940D1*
X86507Y77864D1*
Y77749D1*
X86545Y77673D1*
X86622Y77596D1*
X86737Y77558D1*
X86813D1*
X86928Y77596D1*
X87004Y77673D1*
X87043Y77749D1*
Y77864D1*
X87004Y77940D1*
X86928Y78017D1*
X86507Y78264D2*
X87043D1*
X86737D2*
X86622Y78302D1*
X86545Y78379D1*
X86507Y78455D1*
Y78570D1*
X86737Y78817D2*
Y79276D1*
X86660D1*
X86583Y79238D1*
X86545Y79200D1*
X86507Y79123D1*
Y79008D1*
X86545Y78932D1*
X86622Y78855D1*
X86737Y78817D1*
X86813D1*
X86928Y78855D1*
X87004Y78932D1*
X87043Y79008D1*
Y79123D1*
X87004Y79200D1*
X86928Y79276D1*
X86507Y79523D2*
X87043D1*
X86660D2*
X86545Y79638D1*
X86507Y79715D1*
Y79829D1*
X86545Y79906D1*
X86660Y79944D1*
X87043D1*
X6050Y78692D2*
X5974Y78769D1*
X5859Y78845D1*
X5706Y78922D1*
X5514Y78960D1*
X5361D1*
X5170Y78922D1*
X5017Y78845D1*
X4902Y78769D1*
X4826Y78692D1*
X5457Y77985D2*
X5534Y78062D1*
X5572Y78139D1*
Y78253D1*
X5534Y78330D1*
X5457Y78406D1*
X5342Y78445D1*
X5266D1*
X5151Y78406D1*
X5075Y78330D1*
X5036Y78253D1*
Y78139D1*
X5075Y78062D1*
X5151Y77985D1*
X6050Y77738D2*
X5974Y77661D1*
X5859Y77585D1*
X5706Y77508D1*
X5514Y77470D1*
X5361D1*
X5170Y77508D1*
X5017Y77585D1*
X4902Y77661D1*
X4826Y77738D1*
X5572Y76446D2*
X5036D1*
X5419D2*
X5534Y76331D1*
X5572Y76254D1*
Y76140D1*
X5534Y76063D1*
X5419Y76025D1*
X5036D1*
X5419D2*
X5534Y75910D1*
X5572Y75833D1*
Y75719D1*
X5534Y75642D1*
X5419Y75603D1*
X5036D1*
X5572Y74897D2*
X5036D1*
X5457D2*
X5534Y74973D1*
X5572Y75050D1*
Y75164D1*
X5534Y75241D1*
X5457Y75317D1*
X5342Y75356D1*
X5266D1*
X5151Y75317D1*
X5075Y75241D1*
X5036Y75164D1*
Y75050D1*
X5075Y74973D1*
X5151Y74897D1*
X5840Y74650D2*
X5036D1*
X5572Y74267D2*
X5189Y74650D1*
X5342Y74497D2*
X5036Y74229D1*
X5342Y73982D2*
Y73523D1*
X5419D1*
X5496Y73561D1*
X5534Y73599D1*
X5572Y73676D1*
Y73791D1*
X5534Y73867D1*
X5457Y73944D1*
X5342Y73982D1*
X5266D1*
X5151Y73944D1*
X5075Y73867D1*
X5036Y73791D1*
Y73676D1*
X5075Y73599D1*
X5151Y73523D1*
X5572Y73276D2*
X5036D1*
X5342D2*
X5457Y73237D1*
X5534Y73161D1*
X5572Y73084D1*
Y72969D1*
X5840Y72607D2*
X5189D1*
X5075Y72569D1*
X5036Y72492D1*
Y72416D1*
X5572Y72722D2*
Y72454D1*
Y72169D2*
X5189D1*
X5075Y72131D1*
X5036Y72054D1*
Y71939D1*
X5075Y71863D1*
X5189Y71748D1*
X5572D2*
X5036D1*
X5572Y71501D2*
X5036D1*
X5419D2*
X5534Y71386D1*
X5572Y71309D1*
Y71195D1*
X5534Y71118D1*
X5419Y71080D1*
X5036D1*
X5419D2*
X5534Y70965D1*
X5572Y70888D1*
Y70774D1*
X5534Y70697D1*
X5419Y70658D1*
X5036D1*
X5113Y70373D2*
X5074Y70411D1*
X5036Y70373D1*
X5074Y70334D1*
X5113Y70373D1*
X5457Y69628D2*
X5534Y69704D1*
X5572Y69781D1*
Y69895D1*
X5534Y69972D1*
X5457Y70048D1*
X5342Y70087D1*
X5266D1*
X5151Y70048D1*
X5075Y69972D1*
X5036Y69895D1*
Y69781D1*
X5075Y69704D1*
X5151Y69628D1*
X5572Y69190D2*
X5534Y69266D1*
X5457Y69342D1*
X5342Y69381D1*
X5266D1*
X5151Y69342D1*
X5075Y69266D1*
X5036Y69190D1*
Y69075D1*
X5075Y68998D1*
X5151Y68922D1*
X5266Y68883D1*
X5342D1*
X5457Y68922D1*
X5534Y68998D1*
X5572Y69075D1*
Y69190D1*
Y68636D2*
X5036D1*
X5419D2*
X5534Y68521D1*
X5572Y68444D1*
Y68330D1*
X5534Y68253D1*
X5419Y68215D1*
X5036D1*
X5419D2*
X5534Y68100D1*
X5572Y68023D1*
Y67909D1*
X5534Y67832D1*
X5419Y67793D1*
X5036D1*
X5648Y66729D2*
X5686D1*
X5763Y66691D1*
X5801Y66653D1*
X5839Y66576D1*
Y66423D1*
X5801Y66347D1*
X5763Y66309D1*
X5686Y66270D1*
X5610D1*
X5533Y66309D1*
X5419Y66385D1*
X5036Y66768D1*
Y66232D1*
X5839Y65755D2*
X5801Y65870D1*
X5686Y65947D1*
X5495Y65985D1*
X5380D1*
X5189Y65947D1*
X5074Y65870D1*
X5036Y65755D1*
Y65679D1*
X5074Y65564D1*
X5189Y65488D1*
X5380Y65449D1*
X5495D1*
X5686Y65488D1*
X5801Y65564D1*
X5839Y65679D1*
Y65755D1*
X5686Y65488D2*
X5189Y65947D1*
X5686Y65202D2*
X5725Y65125D1*
X5839Y65010D1*
X5036D1*
X5839Y64305D2*
Y64687D1*
X5495Y64725D1*
X5533Y64687D1*
X5572Y64572D1*
Y64457D1*
X5533Y64343D1*
X5457Y64266D1*
X5342Y64228D1*
X5266D1*
X5151Y64266D1*
X5074Y64343D1*
X5036Y64457D1*
Y64572D1*
X5074Y64687D1*
X5113Y64725D1*
X5189Y64763D1*
X5457Y62743D2*
X5534Y62820D1*
X5572Y62897D1*
Y63011D1*
X5534Y63088D1*
X5457Y63164D1*
X5342Y63203D1*
X5266D1*
X5151Y63164D1*
X5075Y63088D1*
X5036Y63011D1*
Y62897D1*
X5075Y62820D1*
X5151Y62743D1*
X5572Y62496D2*
X5036D1*
X5342D2*
X5457Y62457D1*
X5534Y62381D1*
X5572Y62304D1*
Y62189D1*
X5342Y61942D2*
Y61483D1*
X5419D1*
X5496Y61521D1*
X5534Y61559D1*
X5572Y61636D1*
Y61751D1*
X5534Y61827D1*
X5457Y61904D1*
X5342Y61942D1*
X5266D1*
X5151Y61904D1*
X5075Y61827D1*
X5036Y61751D1*
Y61636D1*
X5075Y61559D1*
X5151Y61483D1*
X5572Y60777D2*
X5036D1*
X5457D2*
X5534Y60853D1*
X5572Y60930D1*
Y61044D1*
X5534Y61121D1*
X5457Y61197D1*
X5342Y61236D1*
X5266D1*
X5151Y61197D1*
X5075Y61121D1*
X5036Y61044D1*
Y60930D1*
X5075Y60853D1*
X5151Y60777D1*
X5840Y60415D2*
X5189D1*
X5075Y60377D1*
X5036Y60300D1*
Y60224D1*
X5572Y60530D2*
Y60262D1*
X5342Y59977D2*
Y59518D1*
X5419D1*
X5496Y59556D1*
X5534Y59594D1*
X5572Y59671D1*
Y59786D1*
X5534Y59862D1*
X5457Y59939D1*
X5342Y59977D1*
X5266D1*
X5151Y59939D1*
X5075Y59862D1*
X5036Y59786D1*
Y59671D1*
X5075Y59594D1*
X5151Y59518D1*
X5840Y58812D2*
X5036D1*
X5457D2*
X5534Y58888D1*
X5572Y58965D1*
Y59080D1*
X5534Y59156D1*
X5457Y59233D1*
X5342Y59271D1*
X5266D1*
X5151Y59233D1*
X5075Y59156D1*
X5036Y59080D1*
Y58965D1*
X5075Y58888D1*
X5151Y58812D1*
X5840Y57788D2*
X5036D1*
X5457D2*
X5534Y57711D1*
X5572Y57635D1*
Y57520D1*
X5534Y57444D1*
X5457Y57367D1*
X5342Y57329D1*
X5266D1*
X5151Y57367D1*
X5075Y57444D1*
X5036Y57520D1*
Y57635D1*
X5075Y57711D1*
X5151Y57788D1*
X5572Y57043D2*
X5036Y56814D1*
X4883Y56890D1*
X4806Y56967D1*
X4768Y57043D1*
Y57082D1*
X5572Y56584D2*
X5036Y56814D1*
Y54947D2*
X5840D1*
X5036Y55253D1*
X5840Y55559D1*
X5036D1*
X5572Y54509D2*
X5534Y54585D1*
X5457Y54662D1*
X5342Y54700D1*
X5266D1*
X5151Y54662D1*
X5075Y54585D1*
X5036Y54509D1*
Y54394D1*
X5075Y54317D1*
X5151Y54241D1*
X5266Y54202D1*
X5342D1*
X5457Y54241D1*
X5534Y54317D1*
X5572Y54394D1*
Y54509D1*
Y53955D2*
X5036D1*
X5342D2*
X5457Y53916D1*
X5534Y53840D1*
X5572Y53763D1*
Y53648D1*
X5840Y53401D2*
X5802Y53363D1*
X5840Y53324D1*
X5879Y53363D1*
X5840Y53401D1*
X5572Y53363D2*
X5036D1*
X5840Y52962D2*
X5189D1*
X5075Y52924D1*
X5036Y52847D1*
Y52771D1*
X5572Y53077D2*
Y52809D1*
Y52524D2*
Y52103D1*
X5036Y52524D1*
Y52103D1*
X5840Y51079D2*
X5036Y50887D1*
X5840Y50696D1*
X5036Y50505D1*
X5840Y50313D1*
X5572Y49607D2*
X5036D1*
X5457D2*
X5534Y49683D1*
X5572Y49760D1*
Y49874D1*
X5534Y49951D1*
X5457Y50027D1*
X5342Y50066D1*
X5266D1*
X5151Y50027D1*
X5075Y49951D1*
X5036Y49874D1*
Y49760D1*
X5075Y49683D1*
X5151Y49607D1*
X5840Y49360D2*
X5036D1*
X5840Y48998D2*
X5189D1*
X5075Y48960D1*
X5036Y48883D1*
Y48807D1*
X5572Y49113D2*
Y48845D1*
X5342Y48560D2*
Y48101D1*
X5419D1*
X5496Y48139D1*
X5534Y48177D1*
X5572Y48254D1*
Y48369D1*
X5534Y48445D1*
X5457Y48522D1*
X5342Y48560D1*
X5266D1*
X5151Y48522D1*
X5075Y48445D1*
X5036Y48369D1*
Y48254D1*
X5075Y48177D1*
X5151Y48101D1*
X5572Y47854D2*
X5036D1*
X5342D2*
X5457Y47815D1*
X5534Y47739D1*
X5572Y47662D1*
Y47547D1*
Y44190D2*
X4768D1*
X5457D2*
X5533Y44113D1*
X5572Y44037D1*
Y43922D1*
X5533Y43845D1*
X5457Y43769D1*
X5342Y43730D1*
X5265D1*
X5151Y43769D1*
X5074Y43845D1*
X5036Y43922D1*
Y44037D1*
X5074Y44113D1*
X5151Y44190D1*
X5572Y43483D2*
X5036D1*
X5342D2*
X5457Y43444D1*
X5534Y43368D1*
X5572Y43291D1*
Y43176D1*
Y42738D2*
X5534Y42814D1*
X5457Y42891D1*
X5342Y42929D1*
X5266D1*
X5151Y42891D1*
X5075Y42814D1*
X5036Y42738D1*
Y42623D1*
X5075Y42546D1*
X5151Y42470D1*
X5266Y42431D1*
X5342D1*
X5457Y42470D1*
X5534Y42546D1*
X5572Y42623D1*
Y42738D1*
X5840Y42069D2*
X5189D1*
X5075Y42031D1*
X5036Y41954D1*
Y41878D1*
X5572Y42184D2*
Y41916D1*
Y41440D2*
X5534Y41516D1*
X5457Y41593D1*
X5342Y41631D1*
X5266D1*
X5151Y41593D1*
X5075Y41516D1*
X5036Y41440D1*
Y41325D1*
X5075Y41248D1*
X5151Y41172D1*
X5266Y41133D1*
X5342D1*
X5457Y41172D1*
X5534Y41248D1*
X5572Y41325D1*
Y41440D1*
X5840Y40771D2*
X5189D1*
X5075Y40733D1*
X5036Y40656D1*
Y40580D1*
X5572Y40886D2*
Y40618D1*
Y40294D2*
X5036Y40065D1*
X4883Y40141D1*
X4806Y40218D1*
X4768Y40294D1*
Y40333D1*
X5572Y39835D2*
X5036Y40065D1*
X5572Y39588D2*
X4768D1*
X5457D2*
X5533Y39511D1*
X5572Y39435D1*
Y39320D1*
X5533Y39243D1*
X5457Y39167D1*
X5342Y39128D1*
X5265D1*
X5151Y39167D1*
X5074Y39243D1*
X5036Y39320D1*
Y39435D1*
X5074Y39511D1*
X5151Y39588D1*
X5342Y38881D2*
Y38422D1*
X5419D1*
X5496Y38460D1*
X5534Y38498D1*
X5572Y38575D1*
Y38690D1*
X5534Y38766D1*
X5457Y38843D1*
X5342Y38881D1*
X5266D1*
X5151Y38843D1*
X5075Y38766D1*
X5036Y38690D1*
Y38575D1*
X5075Y38498D1*
X5151Y38422D1*
X5074Y38098D2*
X5036Y38137D1*
X5074Y38175D1*
X5113Y38137D1*
X5074Y38098D1*
X4998D1*
X4921Y38137D1*
X4883Y38175D1*
X5572Y37074D2*
X5036D1*
X5419D2*
X5534Y36959D1*
X5572Y36882D1*
Y36768D1*
X5534Y36691D1*
X5419Y36653D1*
X5036D1*
X5572Y36215D2*
X5534Y36291D1*
X5457Y36368D1*
X5342Y36406D1*
X5266D1*
X5151Y36368D1*
X5075Y36291D1*
X5036Y36215D1*
Y36100D1*
X5075Y36023D1*
X5151Y35947D1*
X5266Y35908D1*
X5342D1*
X5457Y35947D1*
X5534Y36023D1*
X5572Y36100D1*
Y36215D1*
X5840Y35546D2*
X5189D1*
X5075Y35508D1*
X5036Y35431D1*
Y35355D1*
X5572Y35661D2*
Y35393D1*
X5840Y34024D2*
Y34100D1*
X5802Y34177D1*
X5687Y34215D1*
X5036D1*
X5572Y34330D2*
Y34062D1*
Y33586D2*
X5534Y33662D1*
X5457Y33739D1*
X5342Y33777D1*
X5266D1*
X5151Y33739D1*
X5075Y33662D1*
X5036Y33586D1*
Y33471D1*
X5075Y33394D1*
X5151Y33318D1*
X5266Y33279D1*
X5342D1*
X5457Y33318D1*
X5534Y33394D1*
X5572Y33471D1*
Y33586D1*
Y33032D2*
X5036D1*
X5342D2*
X5457Y32993D1*
X5534Y32917D1*
X5572Y32840D1*
Y32726D1*
Y31701D2*
X5036D1*
X5342D2*
X5457Y31662D1*
X5534Y31586D1*
X5572Y31509D1*
Y31394D1*
X5342Y31147D2*
Y30688D1*
X5419D1*
X5496Y30726D1*
X5534Y30764D1*
X5572Y30841D1*
Y30956D1*
X5534Y31032D1*
X5457Y31109D1*
X5342Y31147D1*
X5266D1*
X5151Y31109D1*
X5075Y31032D1*
X5036Y30956D1*
Y30841D1*
X5075Y30764D1*
X5151Y30688D1*
X5840Y30326D2*
X5189D1*
X5075Y30288D1*
X5036Y30211D1*
Y30135D1*
X5572Y30441D2*
Y30173D1*
Y29429D2*
X5036D1*
X5457D2*
X5534Y29505D1*
X5572Y29582D1*
Y29696D1*
X5534Y29773D1*
X5457Y29849D1*
X5342Y29888D1*
X5266D1*
X5151Y29849D1*
X5075Y29773D1*
X5036Y29696D1*
Y29582D1*
X5075Y29505D1*
X5151Y29429D1*
X5840Y29182D2*
X5802Y29144D1*
X5840Y29105D1*
X5879Y29144D1*
X5840Y29182D1*
X5572Y29144D2*
X5036D1*
X5840Y28858D2*
X5036D1*
X5074Y28534D2*
X5036Y28573D1*
X5074Y28611D1*
X5113Y28573D1*
X5074Y28534D1*
X4998D1*
X4921Y28573D1*
X4883Y28611D1*
X5840Y27509D2*
X5036D1*
X5572Y27127D2*
X5189Y27509D1*
X5342Y27356D2*
X5036Y27089D1*
X5342Y26841D2*
Y26383D1*
X5419D1*
X5496Y26421D1*
X5534Y26459D1*
X5572Y26536D1*
Y26650D1*
X5534Y26727D1*
X5457Y26803D1*
X5342Y26841D1*
X5266D1*
X5151Y26803D1*
X5075Y26727D1*
X5036Y26650D1*
Y26536D1*
X5075Y26459D1*
X5151Y26383D1*
X5342Y26136D2*
Y25677D1*
X5419D1*
X5496Y25715D1*
X5534Y25753D1*
X5572Y25830D1*
Y25945D1*
X5534Y26021D1*
X5457Y26097D1*
X5342Y26136D1*
X5266D1*
X5151Y26097D1*
X5075Y26021D1*
X5036Y25945D1*
Y25830D1*
X5075Y25753D1*
X5151Y25677D1*
X5572Y25430D2*
X4768D1*
X5457D2*
X5533Y25353D1*
X5572Y25277D1*
Y25162D1*
X5533Y25085D1*
X5457Y25009D1*
X5342Y24970D1*
X5265D1*
X5151Y25009D1*
X5074Y25085D1*
X5036Y25162D1*
Y25277D1*
X5074Y25353D1*
X5151Y25430D1*
X5572Y23486D2*
X5036D1*
X5457D2*
X5534Y23562D1*
X5572Y23639D1*
Y23753D1*
X5534Y23830D1*
X5457Y23906D1*
X5342Y23945D1*
X5266D1*
X5151Y23906D1*
X5075Y23830D1*
X5036Y23753D1*
Y23639D1*
X5075Y23562D1*
X5151Y23486D1*
X5572Y23239D2*
X5036Y23086D1*
X5572Y22933D1*
X5036Y22780D1*
X5572Y22627D1*
Y21921D2*
X5036D1*
X5457D2*
X5534Y21997D1*
X5572Y22074D1*
Y22188D1*
X5534Y22265D1*
X5457Y22341D1*
X5342Y22380D1*
X5266D1*
X5151Y22341D1*
X5075Y22265D1*
X5036Y22188D1*
Y22074D1*
X5075Y21997D1*
X5151Y21921D1*
X5572Y21635D2*
X5036Y21406D1*
X4883Y21482D1*
X4806Y21559D1*
X4768Y21635D1*
Y21674D1*
X5572Y21176D2*
X5036Y21406D1*
X5840Y19846D2*
Y19922D1*
X5802Y19999D1*
X5687Y20037D1*
X5036D1*
X5572Y20152D2*
Y19884D1*
Y19599D2*
X5036D1*
X5342D2*
X5457Y19560D1*
X5534Y19484D1*
X5572Y19407D1*
Y19292D1*
Y18854D2*
X5534Y18930D1*
X5457Y19007D1*
X5342Y19045D1*
X5266D1*
X5151Y19007D1*
X5075Y18930D1*
X5036Y18854D1*
Y18739D1*
X5075Y18662D1*
X5151Y18586D1*
X5266Y18547D1*
X5342D1*
X5457Y18586D1*
X5534Y18662D1*
X5572Y18739D1*
Y18854D1*
Y18300D2*
X5036D1*
X5419D2*
X5534Y18185D1*
X5572Y18108D1*
Y17994D1*
X5534Y17917D1*
X5419Y17879D1*
X5036D1*
X5419D2*
X5534Y17764D1*
X5572Y17687D1*
Y17573D1*
X5534Y17496D1*
X5419Y17457D1*
X5036D1*
X5457Y15973D2*
X5534Y16050D1*
X5572Y16126D1*
Y16241D1*
X5534Y16317D1*
X5457Y16394D1*
X5342Y16432D1*
X5266D1*
X5151Y16394D1*
X5075Y16317D1*
X5036Y16241D1*
Y16126D1*
X5075Y16050D1*
X5151Y15973D1*
X5840Y15726D2*
X5036D1*
X5419D2*
X5534Y15611D1*
X5572Y15534D1*
Y15419D1*
X5534Y15343D1*
X5419Y15305D1*
X5036D1*
X5840Y15058D2*
X5802Y15020D1*
X5840Y14981D1*
X5879Y15020D1*
X5840Y15058D1*
X5572Y15020D2*
X5036D1*
X5840Y14734D2*
X5036D1*
X5840Y14028D2*
X5036D1*
X5457D2*
X5534Y14104D1*
X5572Y14181D1*
Y14296D1*
X5534Y14372D1*
X5457Y14449D1*
X5342Y14487D1*
X5266D1*
X5151Y14449D1*
X5075Y14372D1*
X5036Y14296D1*
Y14181D1*
X5075Y14104D1*
X5151Y14028D1*
X5572Y13781D2*
X5036D1*
X5342D2*
X5457Y13742D1*
X5534Y13666D1*
X5572Y13589D1*
Y13474D1*
X5342Y13227D2*
Y12768D1*
X5419D1*
X5496Y12806D1*
X5534Y12844D1*
X5572Y12921D1*
Y13036D1*
X5534Y13112D1*
X5457Y13189D1*
X5342Y13227D1*
X5266D1*
X5151Y13189D1*
X5075Y13112D1*
X5036Y13036D1*
Y12921D1*
X5075Y12844D1*
X5151Y12768D1*
X5572Y12521D2*
X5036D1*
X5419D2*
X5534Y12406D1*
X5572Y12329D1*
Y12215D1*
X5534Y12138D1*
X5419Y12100D1*
X5036D1*
M02*
